<svg version="1.1" xmlns="http://www.w3.org/2000/svg" viewBox="0 0 1200 1080" width="3600" height="3240">
  <!-- svg-source:excalidraw -->
  
  <defs>
    <style class="style-fonts">
      @font-face {
        font-family: "Virgil";
        src: url("https://excalidraw.com/Virgil.woff2");
      }
      @font-face {
        font-family: "Cascadia";
        src: url("https://excalidraw.com/Cascadia.woff2");
      }
    </style>
  </defs>
  <g stroke-linecap="round" transform="translate(410 970) rotate(0 390 42)"><path d="M0.55 -0.18 C285.25 1.21, 570.4 0.75, 780.05 -0.02 M0.29 0.38 C239.04 2.32, 477.93 2.96, 780.03 -0.25 M781.72 -1.75 C779.61 23.78, 779.89 51.13, 779.75 82.46 M779.8 0.85 C780.9 21.48, 781.49 43.12, 780.89 83.91 M780.1 84.62 C476.44 86.74, 174.81 86.85, -0.47 84.78 M779.95 84.19 C569.05 85.72, 358.84 85.62, -0.28 84.33 M-0.6 82.72 C-0.58 65.45, 0.95 48.08, 1.91 1.81 M0.89 84.74 C-0.06 58.71, 1.31 34.4, -0.84 0.35" stroke="#000000" stroke-width="2" fill="none"></path></g><g transform="translate(725.5 990) rotate(0 74.5 22)"><text x="74.5" y="35" font-family="Cascadia, Segoe UI Emoji" font-size="36px" fill="#000000" text-anchor="middle" style="white-space: pre;" direction="ltr">MAIN VM</text></g><g stroke-linecap="round" transform="translate(410 550) rotate(0 110 160)"><path d="M-1.6 -1.6 C55.21 0.77, 108.67 -1.12, 219.6 0.19 M-0.34 -0.38 C83.16 -1.54, 168.85 -1.02, 220.76 0.07 M219.4 0.63 C221.02 95.74, 221.64 192.81, 220.96 320.95 M220.6 -0.66 C221.72 83.64, 221.87 168.15, 219.69 319.97 M218.44 321.2 C142.32 319.49, 65.18 319.55, -1.33 319.57 M219.71 320.68 C138.56 320.92, 57.11 320.58, -0.59 319.29 M0.48 320.41 C0.02 193.95, 1.65 66.76, -0.75 0.95 M0.56 320.49 C0.94 194.12, 1.13 69.15, 0.2 0.07" stroke="#000000" stroke-width="1" fill="none"></path></g><g transform="translate(486.5 550) rotate(0 33.5 17.5)"><text x="33.5" y="28" font-family="Cascadia, Segoe UI Emoji" font-size="28px" fill="#000000" text-anchor="middle" style="white-space: pre;" direction="ltr">VM 1</text></g><g stroke-linecap="round" transform="translate(410 10) rotate(0 390 260)"><path d="M0.45 0.61 C297.59 2.77, 593.31 1.99, 780.23 -0.46 M0.24 -0.28 C285.32 -0.56, 571.06 -0.42, 779.81 -0.29 M780.52 -0.76 C778.29 187.72, 778.98 374.97, 780.36 519.31 M779.87 -0.14 C778.56 147.99, 778.46 295.92, 780.21 520.2 M779.56 520.29 C573.46 520.21, 366.52 520.34, -0.71 519.92 M779.93 519.69 C504.26 519.11, 229.16 518.66, 0.38 519.9 M0.76 520.58 C-0.72 415.57, -0.78 312.21, -0.39 0.01 M0.15 519.93 C0.79 354.26, 0.59 189.33, 0.39 -0.13" stroke="#364fc7" stroke-width="1" fill="none"></path></g><g transform="translate(758.5 15) rotate(0 41.5 13)"><text x="41.5" y="20" font-family="Cascadia, Segoe UI Emoji" font-size="20px" fill="#364fc7" text-anchor="middle" style="white-space: pre;" direction="ltr">Cluster</text></g><g stroke-linecap="round" transform="translate(450 610) rotate(0 70 60.5)"><path d="M1.88 1.75 C44.93 0.49, 92.1 -1.88, 141.43 -0.33 M0.82 -0.43 C48.63 0.41, 97.81 0.8, 139.01 -0.26 M139.47 -0.08 C140.9 39.24, 140.58 83.67, 140.67 120.89 M140.87 -0.98 C141.18 32.79, 140.93 65.65, 140.41 121.64 M139.63 122.04 C111.29 120.58, 84.14 121.83, 1.84 120.17 M139.44 121.12 C106.01 121.63, 70.9 122.11, -0.73 120.42 M-1.6 119.42 C-1.96 78.74, 1.22 34.93, 1.77 -1.5 M0.44 121.19 C-1.21 83.76, -1.72 44.29, -0.15 0.77" stroke="#364fc7" stroke-width="1" fill="none"></path></g><g transform="translate(470.5 635.5) rotate(0 49.5 35)"><text x="49.5" y="28" font-family="Cascadia, Segoe UI Emoji" font-size="28px" fill="#364fc7" text-anchor="middle" style="white-space: pre;" direction="ltr">K8s</text><text x="49.5" y="63" font-family="Cascadia, Segoe UI Emoji" font-size="28px" fill="#364fc7" text-anchor="middle" style="white-space: pre;" direction="ltr">Master</text></g><g stroke-linecap="round" transform="translate(10 950) rotate(0 110 60)"><path d="M30 0 M30 0 C89.24 2.79, 147.37 0.7, 190 0 M30 0 C79.47 0.72, 129.29 -0.49, 190 0 M190 0 C208.77 1.98, 219.63 11.86, 220 30 M190 0 C209.49 -0.02, 221.21 8.52, 220 30 M220 30 C220.46 50.34, 220.87 68.66, 220 90 M220 30 C220.92 43.64, 220.46 55.94, 220 90 M220 90 C221.64 108.44, 208.86 118.21, 190 120 M220 90 C221.55 108.82, 208.81 121.44, 190 120 M190 120 C138.22 121.26, 83.28 119.4, 30 120 M190 120 C141 119.46, 91.19 119.81, 30 120 M30 120 C9.58 118.52, -1.65 111.98, 0 90 M30 120 C10.44 122.18, 2.14 112.24, 0 90 M0 90 C0.99 74.31, 1.15 58.05, 0 30 M0 90 C-0.71 76.94, -0.97 64.62, 0 30 M0 30 C0.69 10.45, 10.8 -1.71, 30 0 M0 30 C-1.23 9.74, 10.73 0.84, 30 0" stroke="#364fc7" stroke-width="1" fill="none"></path></g><g transform="translate(38.5 975.5) rotate(0 81.5 37)"><text x="81.5" y="26" font-family="Virgil, Segoe UI Emoji" font-size="28px" fill="#364fc7" text-anchor="middle" style="white-space: pre;" direction="ltr">KubeCTL / </text><text x="81.5" y="63" font-family="Virgil, Segoe UI Emoji" font-size="28px" fill="#364fc7" text-anchor="middle" style="white-space: pre;" direction="ltr">Helm</text></g><g stroke-linecap="round" transform="translate(470 390) rotate(0 50 40)"><path d="M0.76 1.77 C24.01 0.04, 48.78 -0.8, 101.07 0 M-0.57 -0.34 C27.97 -0.15, 55.71 0.51, 100.98 0.02 M100.66 -0.49 C102.07 23.19, 99.51 46.94, 100.92 80.47 M100.09 0.74 C101.35 22.75, 101.31 45.2, 100.12 79.57 M100.41 78.54 C75.24 78.1, 46.86 80.3, -1.4 81.21 M99.35 80.23 C77.2 80.21, 52.59 81.4, -0.25 80.03 M-1.08 78.78 C-0.44 62.85, 2.3 45.58, 0.77 -1.12 M-0.06 79.85 C-0.71 58.25, -0.8 36.05, -0.53 0.03" stroke="#000000" stroke-width="1" fill="none"></path></g><g transform="translate(486.5 420) rotate(0 33.5 10)"><text x="33.5" y="16" font-family="Cascadia, Segoe UI Emoji" font-size="16px" fill="#000000" text-anchor="middle" style="white-space: pre;" direction="ltr">Backend</text></g><g stroke-linecap="round" transform="translate(470 150) rotate(0 50 40)"><path d="M1.4 0.01 C31.35 -1.16, 58.93 -0.08, 98.66 -1.25 M-0.18 0.57 C28.06 0.43, 56.5 -0.24, 99.67 -0.44 M99.57 1.35 C100.89 18.42, 100.34 34.1, 99.13 80.86 M99.61 1 C101.12 22.53, 101.36 43.16, 99.83 79.37 M100.5 78.45 C68.47 82.6, 40.82 80.83, -1.94 79.96 M99.1 79.03 C60.83 80.74, 21.38 80.17, 0.72 80.17 M-1.17 79.48 C-0.29 60.79, 1.11 43.79, 1.89 0.97 M-0.83 80.27 C0 47.94, -0.76 17.42, 0.05 0.46" stroke="#000000" stroke-width="1" fill="none"></path></g><g transform="translate(482 180) rotate(0 38 10)"><text x="38" y="16" font-family="Cascadia, Segoe UI Emoji" font-size="16px" fill="#000000" text-anchor="middle" style="white-space: pre;" direction="ltr">Frontend</text></g><g stroke-linecap="round" transform="translate(470 310) rotate(0 120 30)"><path d="M0.65 0.68 C69.29 -2.18, 137.44 -1.87, 238.39 -1.15 M-0.51 0.83 C94.02 -1.8, 188.9 -1.42, 239.31 0.46 M238.49 -0.09 C238.25 22.88, 241.45 42.83, 240.61 61.9 M240.04 -0.76 C240.72 20.04, 240.45 41.76, 239.3 60.96 M239.93 61.36 C184.13 60.45, 128.94 58.27, 0.29 59.83 M239.67 59.86 C172.63 59.17, 103.31 59.21, -0.64 59.18 M-1.78 60.15 C-0.3 38.29, -1.37 16.93, -0.77 -1.85 M0.43 60.66 C-0.46 41.26, -0.31 23.77, -0.36 -0.04" stroke="#087f5b" stroke-width="1" fill="none"></path></g><g transform="translate(513.5 327) rotate(0 76.5 13)"><text x="76.5" y="20" font-family="Cascadia, Segoe UI Emoji" font-size="20px" fill="#087f5b" text-anchor="middle" style="white-space: pre;" direction="ltr">Load-Balancer</text></g><g stroke-linecap="round" transform="translate(610 390) rotate(0 50 40)"><path d="M0.64 -0.08 C22.98 -0.16, 49.99 -0.38, 101.57 1.3 M-0.62 -0.47 C23.14 -0.51, 46.07 0.59, 100.99 0.14 M98.38 -1.76 C100.71 31.29, 101.68 62.29, 100.31 78.13 M99.7 -0.59 C99.25 30.52, 98.99 61.16, 100.19 79.15 M101.78 81.52 C64.5 80.68, 33.09 79.17, -1.25 78.7 M99.6 80.38 C70.87 80.48, 41.99 79.77, 0.71 80.24 M0.58 80.97 C-0.06 59.05, 0.41 36.53, 0.32 -0.02 M0.65 80.54 C0.04 54.35, -1.04 29.44, 0.52 -0.65" stroke="#000000" stroke-width="1" fill="none"></path></g><g transform="translate(626.5 420) rotate(0 33.5 10)"><text x="33.5" y="16" font-family="Cascadia, Segoe UI Emoji" font-size="16px" fill="#000000" text-anchor="middle" style="white-space: pre;" direction="ltr">Backend</text></g><g stroke-linecap="round" transform="translate(610 150) rotate(0 50 40)"><path d="M-0.9 -0.9 C22.72 -1.65, 47.59 -1.4, 100.64 1.5 M-0.73 0.91 C25.93 0, 53.58 0.3, 100.76 0.76 M99.16 -0.9 C99.79 23.13, 97.72 44.09, 98.01 79.82 M100.12 -0.9 C99.78 28.52, 99.58 55.79, 100.08 79.47 M101.83 81.07 C72.66 80.14, 40.76 79.71, 0.32 80.73 M100.6 79.45 C67.73 79.7, 35.82 79.96, -0.27 79.03 M-0.62 81.57 C1.49 51.3, -0.68 19.79, -0.38 1.52 M-0.24 80.37 C-1.07 60.9, -1.19 42.62, -0.37 0.74" stroke="#000000" stroke-width="1" fill="none"></path></g><g transform="translate(622 180) rotate(0 38 10)"><text x="38" y="16" font-family="Cascadia, Segoe UI Emoji" font-size="16px" fill="#000000" text-anchor="middle" style="white-space: pre;" direction="ltr">Frontend</text></g><g stroke-linecap="round" transform="translate(470 70) rotate(0 120 30)"><path d="M1.58 -0.01 C95.01 1.88, 187.13 -0.29, 240.81 -0.7 M-0.77 -0.23 C60.34 -0.89, 122.71 -1.16, 239.54 0.1 M239.83 1.49 C240.24 11.55, 239.92 23.84, 239.97 61.83 M239.65 -0.14 C240.74 21.57, 240.8 42.2, 239.57 60.6 M240.48 60.65 C180.72 58.64, 123.46 60.85, 0.41 59.48 M239.84 59.46 C149 61.39, 57.73 61.5, -0.68 59.8 M-0.96 58.87 C-0.54 41.27, 0.04 17.97, 1.17 0.59 M-0.97 60.87 C0.4 37.79, -0.08 17.09, -0.85 -0.86" stroke="#087f5b" stroke-width="1" fill="none"></path></g><g transform="translate(513.5 87) rotate(0 76.5 13)"><text x="76.5" y="20" font-family="Cascadia, Segoe UI Emoji" font-size="20px" fill="#087f5b" text-anchor="middle" style="white-space: pre;" direction="ltr">Load-Balancer</text></g><g stroke-linecap="round" transform="translate(710 550) rotate(0 110 160)"><path d="M-0.68 1.18 C67.89 0.76, 134.12 1.7, 221.52 -1.24 M-0.1 -0.75 C57.43 -1.6, 114.14 0.06, 219.32 0 M220.49 0.68 C219.62 98.02, 221.38 195.44, 219.89 319.59 M220.38 -0.08 C217.78 93.65, 217.46 186.96, 220.27 320.67 M220.39 318.4 C144.67 319.69, 69.45 320.79, 1.53 321.37 M220.62 320.06 C137.81 321.34, 53.43 320.83, -0.18 319.22 M-1.06 318.82 C1.52 200.56, -0.62 81.25, -1.23 -0.53 M-0.28 319.92 C0.4 255.79, 1.07 191.09, 0.37 0.7" stroke="#000000" stroke-width="1" fill="none"></path></g><g transform="translate(786.5 550) rotate(0 33.5 17.5)"><text x="33.5" y="28" font-family="Cascadia, Segoe UI Emoji" font-size="28px" fill="#000000" text-anchor="middle" style="white-space: pre;" direction="ltr">VM 2</text></g><g stroke-linecap="round" transform="translate(750 610) rotate(0 70 60.5)"><path d="M0.24 1.92 C28.08 2.35, 58.57 -0.68, 138.84 1 M-0.79 -0.91 C43.55 1.79, 86.33 2, 139.25 0.15 M140.39 -0.28 C141.76 45.75, 139.13 93.77, 141.55 120.02 M140.15 -0.97 C140.41 29.7, 140.55 59.17, 140.43 121.64 M140.61 120.55 C86.94 121.64, 36.25 120.46, -0.69 122.52 M140.45 120.01 C99.87 121.23, 57.05 120.86, -0.91 120.19 M-0.43 119.06 C-1.92 82.67, -2.15 40.81, -0.41 0.89 M-0.3 120.65 C-0.44 95.56, 0.56 69.77, -0.81 -0.19" stroke="#364fc7" stroke-width="1" fill="none"></path></g><g transform="translate(786.5 635.5) rotate(0 33.5 35)"><text x="33.5" y="28" font-family="Cascadia, Segoe UI Emoji" font-size="28px" fill="#364fc7" text-anchor="middle" style="white-space: pre;" direction="ltr">K8s</text><text x="33.5" y="63" font-family="Cascadia, Segoe UI Emoji" font-size="28px" fill="#364fc7" text-anchor="middle" style="white-space: pre;" direction="ltr">Node</text></g><g stroke-linecap="round" transform="translate(970 550) rotate(0 110 160)"><path d="M-1.46 1.48 C82.88 -2.99, 167.78 -2.33, 220.58 -0.75 M-0.59 0.02 C51.97 -1.03, 104.89 -1.63, 220.22 0.74 M221.15 0.44 C218.22 112.09, 217.47 225.57, 220.12 319.21 M220.35 0.06 C222.48 81.27, 222.68 161.81, 220.17 319.76 M219.39 320.31 C161.43 320.89, 101.65 320.99, 0.97 321.61 M220.04 320.45 C163.36 320.16, 105.4 320.16, -0.48 319.62 M-0.2 318.99 C3.05 249.69, 2.39 180.12, 0.89 0.5 M-0.41 319.37 C-2.79 213.12, -2.09 106.15, -0.49 0.32" stroke="#000000" stroke-width="1" fill="none"></path></g><g transform="translate(1046.5 550) rotate(0 33.5 17.5)"><text x="33.5" y="28" font-family="Cascadia, Segoe UI Emoji" font-size="28px" fill="#000000" text-anchor="middle" style="white-space: pre;" direction="ltr">VM 3</text></g><g stroke-linecap="round" transform="translate(1010 610) rotate(0 70 60.5)"><path d="M-1.41 -1.74 C52.4 -2.17, 106.48 -2.06, 138.8 -1.27 M-0.96 -0.1 C48.12 -0.82, 98.14 0.82, 140.52 -0.78 M139.95 -0.91 C139.88 46.12, 141.17 90.81, 139.07 122.86 M140.56 0.15 C141.46 33.49, 140.85 68.14, 139.65 120.35 M139.79 122.43 C98.7 122.79, 62.16 123.11, -0.78 120.67 M140.87 120.79 C95.66 121.51, 50.32 121.28, -0.81 120.07 M1.37 120.85 C0.6 82.74, 1.44 43.69, 0.67 1.89 M-0.95 120.84 C0.76 89.42, 0.02 59.19, -0.7 -0.09" stroke="#364fc7" stroke-width="1" fill="none"></path></g><g transform="translate(1046.5 635.5) rotate(0 33.5 35)"><text x="33.5" y="28" font-family="Cascadia, Segoe UI Emoji" font-size="28px" fill="#364fc7" text-anchor="middle" style="white-space: pre;" direction="ltr">K8s</text><text x="33.5" y="63" font-family="Cascadia, Segoe UI Emoji" font-size="28px" fill="#364fc7" text-anchor="middle" style="white-space: pre;" direction="ltr">Node</text></g><g stroke-linecap="round" transform="translate(450 50) rotate(0 140 100)"><path d="M-0.41 -0.23 C70.8 1.97, 142.9 1.05, 280.16 -0.07 M-0.53 0.35 C103.21 -1.34, 207.06 -1.46, 280.18 -0.63 M279.62 0.81 C279.46 49.52, 279.96 99.14, 280.75 199.5 M279.79 -0.75 C281.55 58.75, 281.87 117.75, 280.42 200.76 M280.52 199.11 C203.23 199.57, 123.32 201.17, -0.73 199.07 M280.2 200.32 C190.13 199.47, 101.6 199.47, -0.6 199.74 M1.32 200.88 C-2.72 121.57, -2 42.27, 0.56 -0.12 M-0.1 199.82 C-0.35 138.93, 0.02 78.17, 0.64 0.05" stroke="#000000" stroke-width="1" fill="none"></path></g><g stroke-linecap="round" transform="translate(450 290) rotate(0 140 100)"><path d="M-0.97 -0.67 C63.34 1.73, 127.88 0.63, 280.15 0.51 M-0.36 -0.09 C77.38 1.18, 155.9 0.8, 280.6 0.4 M280.3 0.92 C279.59 56.16, 280.03 110.26, 279.98 200.73 M279.24 -0.28 C279.13 66.39, 278.41 133.8, 280.82 200.03 M278.79 200.63 C187.37 197.37, 96.63 200.03, 1.03 198.92 M280.23 199.66 C175.49 198.44, 70.76 198.22, 0.31 200.02 M-0.96 201.5 C-0.93 143.58, 0.48 83.6, 1.21 0.51 M-0.3 199.78 C1.34 130.59, 1.04 59.86, 0.51 -0.32" stroke="#000000" stroke-width="1" fill="none"></path></g><g transform="translate(770 270) rotate(0 117.5 13)"><text x="117.5" y="20" font-family="Cascadia, Segoe UI Emoji" font-size="20px" fill="#862e9c" text-anchor="middle" style="white-space: pre;" direction="ltr">Logging &amp; Usage-Data</text></g><g stroke-linecap="round"><g transform="translate(730 330) rotate(0 170.15288463443449 -39.4692933658107)"><path d="M0.67 0.39 C109.35 1.58, 219.94 1.25, 339.71 -0.59 M-0.27 -0.06 C68.72 -1.08, 135.83 -0.78, 340.4 0.31 M338.16 -0.67 C341.55 -27.25, 338.83 -53.73, 340.58 -80.03 M340.01 0.94 C340.15 -16.29, 339.25 -33.12, 339.05 -79.13" stroke="#862e9c" stroke-width="1" fill="none"></path></g><g transform="translate(730 330) rotate(0 170.15288463443449 -39.4692933658107)"><path d="M340.68 -80.53 L344.82 -66.68 L332.03 -66.29 L340.13 -78.03" stroke="none" stroke-width="0" fill="#862e9c" fill-rule="evenodd"></path><path d="M339.8 -78.7 C340.08 -73.7, 342.56 -69.69, 345.19 -66.27 M338.74 -79.21 C340.99 -77.03, 341.11 -73.97, 345.96 -65.25 M344.35 -66.03 C342.26 -66.24, 336.31 -66.32, 333.2 -66.13 M345.52 -65 C343.51 -65.76, 340.34 -66.13, 332.23 -65.56 M333.33 -66.32 C335.78 -71.9, 338.92 -75.94, 338.99 -77.99 M332.82 -65.08 C335.21 -69.19, 336.62 -72.37, 339.04 -78.82 M339.05 -79.13 C339.05 -79.13, 339.05 -79.13, 339.05 -79.13 M339.05 -79.13 C339.05 -79.13, 339.05 -79.13, 339.05 -79.13" stroke="#862e9c" stroke-width="1" fill="none"></path></g></g><mask></mask><g stroke-linecap="round" transform="translate(990 170) rotate(0 80 40)"><path d="M-1.4 0.73 C61.33 -1.72, 124.03 0.96, 160.68 -1.39 M-0.73 -0.98 C63.61 1.63, 127.35 1.91, 159.11 0.71 M159.32 -0.77 C160.9 22.95, 161.48 50.96, 161.12 81.58 M159.67 0.62 C161.44 21.24, 160.15 42.9, 160.51 80.88 M161.1 78.8 C122.83 81.29, 86.19 78.22, 0.29 80.09 M160.22 80.17 C106.35 80.74, 54.72 80.35, 0.71 80.07 M-0.86 80.01 C-0.99 58.81, 0.14 37.75, -1.18 -0.27 M-0.06 79.92 C-0.77 54.04, -0.12 28.83, 0.91 -0.41" stroke="#862e9c" stroke-width="1" fill="none"></path></g><g transform="translate(1011 184) rotate(0 59 26)"><text x="59" y="20" font-family="Cascadia, Segoe UI Emoji" font-size="20px" fill="#862e9c" text-anchor="middle" style="white-space: pre;" direction="ltr">Prometheus</text><text x="59" y="46" font-family="Cascadia, Segoe UI Emoji" font-size="20px" fill="#862e9c" text-anchor="middle" style="white-space: pre;" direction="ltr">Server</text></g><g stroke-linecap="round"><g transform="translate(731 210) rotate(0 128.75429903268287 0.027482581744550316)"><path d="M-0.62 -0.62 C104.27 -0.48, 206.75 0.85, 257.02 0.29 M0.11 0.04 C80.42 1.35, 162.52 0.28, 258.13 -0.01" stroke="#862e9c" stroke-width="1" fill="none"></path></g><g transform="translate(731 210) rotate(0 128.75429903268287 0.027482581744550316)"><path d="M256.88 -0.98 L244.71 7.99 L243.32 -5.94 L258.42 -1.66" stroke="none" stroke-width="0" fill="#862e9c" fill-rule="evenodd"></path><path d="M257.55 -0.59 C253.94 1.73, 248.14 5.53, 243.65 6.67 M258.23 0.03 C253.38 2.46, 250.21 3.46, 244.69 6.38 M243.44 7.14 C244.86 2.11, 244.34 -4.81, 244.56 -5.92 M244.3 6.85 C244.51 1.94, 243.92 -2.38, 244.36 -5.7 M245.8 -6.27 C247.85 -5.1, 253.68 -2.09, 258.62 0.34 M245.2 -6 C249.33 -4.19, 254.72 -0.65, 258.68 0.62 M258.13 -0.01 C258.13 -0.01, 258.13 -0.01, 258.13 -0.01 M258.13 -0.01 C258.13 -0.01, 258.13 -0.01, 258.13 -0.01" stroke="#862e9c" stroke-width="1" fill="none"></path></g></g><mask></mask><g stroke-linecap="round" transform="translate(990 50) rotate(0 80 45.5)"><path d="M-0.82 0.71 C41.21 1.11, 79.86 1.88, 160.07 -0.86 M-0.79 -0.26 C58.97 -2, 116.71 -0.6, 159.76 -0.8 M158.13 -1.47 C161.29 21.08, 157.82 36.97, 160.38 89.83 M159.46 -0.63 C159.51 31.02, 159.16 60.02, 160.27 91.16 M158.98 91.91 C100.5 91.58, 41.26 93.88, -1.38 91.08 M160.82 91.12 C101 92.78, 43.14 93.23, -0.83 90.22 M-1.41 91.63 C0.82 65.61, 0.78 36.03, -0.16 1.9 M0.79 90.8 C-0.88 61.55, 0.47 30.01, 0.77 0.66" stroke="#862e9c" stroke-width="1" fill="none"></path></g><g transform="translate(1016.5 69.5) rotate(0 53.5 26)"><text x="53.5" y="20" font-family="Cascadia, Segoe UI Emoji" font-size="20px" fill="#862e9c" text-anchor="middle" style="white-space: pre;" direction="ltr">Graphana-</text><text x="53.5" y="46" font-family="Cascadia, Segoe UI Emoji" font-size="20px" fill="#862e9c" text-anchor="middle" style="white-space: pre;" direction="ltr">Dashboard</text></g><g stroke-linecap="round"><g transform="translate(1069.818352640319 168.90109890109892) rotate(0 -0.4418161330818293 -9.624516949151314)"><path d="M-1.73 0.66 C-0.38 -5.74, 0.72 -11.62, 0.38 -19.99 M0.3 0.74 C1 -6.6, 0.84 -13.92, 0.81 -19.47" stroke="#862e9c" stroke-width="1" fill="none"></path></g><g transform="translate(1069.818352640319 168.90109890109892) rotate(0 -0.4418161330818293 -9.624516949151314)"><path d="M2.71 -19.94 L6.28 -11.92 L-2.78 -10.54 L0.31 -18.23" stroke="none" stroke-width="0" fill="#862e9c" fill-rule="evenodd"></path><path d="M-0.06 -19.14 C1.65 -17.37, 3.31 -15.36, 5.03 -11.48 M0.95 -19.1 C2.73 -16.09, 4.16 -13.02, 5.24 -11.22 M5.34 -10.19 C3.54 -10.22, 0.52 -10.53, -3.39 -11.07 M4.94 -11.15 C3.64 -11.18, 1.49 -10.63, -2.75 -10.98 M-3.44 -10.41 C-2.33 -13.69, -1.2 -15.92, 0.98 -19.74 M-2.79 -11.31 C-2.03 -12.61, -1.25 -15.05, 0.53 -19.59 M0.81 -19.47 C0.81 -19.47, 0.81 -19.47, 0.81 -19.47 M0.81 -19.47 C0.81 -19.47, 0.81 -19.47, 0.81 -19.47" stroke="#862e9c" stroke-width="1" fill="none"></path></g></g><mask></mask><g stroke-linecap="round" transform="translate(450 750) rotate(0 70 52.5)"><path d="M-1.03 0.97 C49.4 -0.89, 98.18 2.49, 139.86 0.59 M-0.98 0.59 C41.79 1.19, 81.79 1.35, 139.07 -0.3 M141.42 0.23 C138.5 27.32, 140.39 59.55, 141.17 104.84 M140.97 -0.39 C138.97 22.54, 138.83 44.86, 139.22 104.62 M139.13 106.8 C106.58 106.68, 74.39 104.05, 0.43 105.36 M139.71 104.45 C103.08 106.18, 65.37 106.77, 0.86 105.17 M-0.16 105.28 C-1.65 82.33, 0.89 61.08, 0.92 -0.57 M0.89 104.47 C-1.26 74.01, -0.8 41.08, -0.61 0.34" stroke="#e67700" stroke-width="1" fill="none"></path></g><g transform="translate(461 776.5) rotate(0 59 26)"><text x="59" y="20" font-family="Cascadia, Segoe UI Emoji" font-size="20px" fill="#e67700" text-anchor="middle" style="white-space: pre;" direction="ltr">Container </text><text x="59" y="46" font-family="Cascadia, Segoe UI Emoji" font-size="20px" fill="#e67700" text-anchor="middle" style="white-space: pre;" direction="ltr">Runtime</text></g><g stroke-linecap="round" transform="translate(750 750) rotate(0 70 52.5)"><path d="M-1.55 -0.2 C32.99 2.46, 66.63 2.95, 140.26 1.13 M0.78 -0.4 C54.82 1.44, 110.08 2.33, 139.21 -0.78 M141.73 1.27 C141.06 29.17, 138.9 57.91, 140.79 105.09 M140.06 0.36 C139.55 21.48, 139.47 42.8, 140.33 104.31 M139.65 104.64 C96.46 103.06, 51.76 105.94, -1.31 103.02 M139.06 104.5 C90.5 105.52, 40.94 106.75, -0.91 104.39 M0.57 104.88 C0.05 70.77, -1.58 33.11, 0.97 -1.94 M0.27 105.92 C-0.08 81.3, -0.78 58, -0.38 0.79" stroke="#e67700" stroke-width="1" fill="none"></path></g><g transform="translate(761 776.5) rotate(0 59 26)"><text x="59" y="20" font-family="Cascadia, Segoe UI Emoji" font-size="20px" fill="#e67700" text-anchor="middle" style="white-space: pre;" direction="ltr">Container </text><text x="59" y="46" font-family="Cascadia, Segoe UI Emoji" font-size="20px" fill="#e67700" text-anchor="middle" style="white-space: pre;" direction="ltr">Runtime</text></g><g stroke-linecap="round" transform="translate(1010 750) rotate(0 70 52.5)"><path d="M0.66 -1.37 C40.85 -0.9, 80.08 0.15, 139.64 0.27 M-0.65 -0.99 C34.41 -0.4, 68.26 -2.14, 139.5 0.3 M138.18 -1.22 C141.45 30.68, 140.57 58.38, 139.88 105.98 M140.48 -0.97 C138.86 42.45, 140.62 83.84, 140.92 105.62 M139.24 106.58 C106.52 102.22, 70.5 102.7, 1.43 104.49 M140.81 104.34 C109.04 105.65, 77.66 104.12, 0.55 104.07 M-0.45 103.94 C-0.16 62.71, 0.43 19.69, 0.05 1.86 M0.87 104.79 C-0.39 77.88, -0.57 50.41, 0.48 -0.63" stroke="#e67700" stroke-width="1" fill="none"></path></g><g transform="translate(1021 776.5) rotate(0 59 26)"><text x="59" y="20" font-family="Cascadia, Segoe UI Emoji" font-size="20px" fill="#e67700" text-anchor="middle" style="white-space: pre;" direction="ltr">Container </text><text x="59" y="46" font-family="Cascadia, Segoe UI Emoji" font-size="20px" fill="#e67700" text-anchor="middle" style="white-space: pre;" direction="ltr">Runtime</text></g><g stroke-linecap="round" transform="translate(410 890) rotate(0 390 30)"><path d="M0 0 C298.78 0, 597.56 0, 780 0 M0 0 C261.61 0, 523.21 0, 780 0 M780 0 C780 21.37, 780 42.75, 780 60 M780 0 C780 18.96, 780 37.91, 780 60 M780 60 C515.42 60, 250.83 60, 0 60 M780 60 C623.83 60, 467.66 60, 0 60 M0 60 C0 47.7, 0 35.39, 0 0 M0 60 C0 42.35, 0 24.71, 0 0" stroke="#000000" stroke-width="2" fill="none"></path></g><g transform="translate(410 902.5) rotate(0 164.5 17.5)"><text x="0" y="28" font-family="Cascadia, Segoe UI Emoji" font-size="28px" fill="#000000" text-anchor="start" style="white-space: pre;" direction="ltr"> Virtuelles Netzwerk</text></g><g stroke-linecap="round" transform="translate(836.0464017236336 894.9612193759303) rotate(0 72.0808589645676 24.026952988189237)"><path d="M12.01 0 M12.01 0 C55.06 1.13, 94.93 0.52, 132.15 0 M12.01 0 C45.36 -0.52, 77.84 0.21, 132.15 0 M132.15 0 C141.58 1.95, 142.93 3.15, 144.16 12.01 M132.15 0 C137.94 -1.15, 145.48 4.81, 144.16 12.01 M144.16 12.01 C145.42 18.31, 145.5 21.35, 144.16 36.04 M144.16 12.01 C144.68 18.61, 144.52 23.78, 144.16 36.04 M144.16 36.04 C143.08 45.03, 140.47 46.34, 132.15 48.05 M144.16 36.04 C144.03 45.21, 139.1 48.42, 132.15 48.05 M132.15 48.05 C101.99 47.33, 68.69 46.74, 12.01 48.05 M132.15 48.05 C95.86 48.13, 60.72 48.2, 12.01 48.05 M12.01 48.05 C2.37 47.43, 0.76 44.43, 0 36.04 M12.01 48.05 C2.85 49.56, -0.89 45.5, 0 36.04 M0 36.04 C1.71 29.1, -0.43 19.9, 0 12.01 M0 36.04 C0.08 28.04, -0.84 20.93, 0 12.01 M0 12.01 C-1.96 4.68, 2.94 0.81, 12.01 0 M0 12.01 C0.56 4.48, 4.74 0.58, 12.01 0" stroke="#000000" stroke-width="2" fill="none"></path></g><g transform="translate(890.1272606882012 905.9881723641197) rotate(0 18 13)"><text x="18" y="20" font-family="Cascadia, Segoe UI Emoji" font-size="20px" fill="#000000" text-anchor="middle" style="white-space: pre;" direction="ltr">DNS</text></g><g stroke-linecap="round" transform="translate(996.2260883115623 894.9612193759303) rotate(0 72.0808589645676 24.026952988189237)"><path d="M12.01 0 M12.01 0 C44.05 1.3, 72.28 2.27, 132.15 0 M12.01 0 C41.91 -1.28, 70.05 -0.19, 132.15 0 M132.15 0 C139.01 0.87, 145.87 4.56, 144.16 12.01 M132.15 0 C140.81 -1.25, 145.29 4.37, 144.16 12.01 M144.16 12.01 C143.22 17.48, 143.38 23.78, 144.16 36.04 M144.16 12.01 C143.98 19.58, 144.27 29.08, 144.16 36.04 M144.16 36.04 C143.05 42.48, 141.64 47.21, 132.15 48.05 M144.16 36.04 C146.03 42.17, 139.44 48.93, 132.15 48.05 M132.15 48.05 C93.02 50.1, 56.14 48.09, 12.01 48.05 M132.15 48.05 C88.02 48.7, 44.48 49.24, 12.01 48.05 M12.01 48.05 C4.56 48.46, -1.25 42.61, 0 36.04 M12.01 48.05 C3.19 45.8, 0.78 42.82, 0 36.04 M0 36.04 C0.58 28.36, 1.55 21.45, 0 12.01 M0 36.04 C0.12 27.22, -0.07 17.42, 0 12.01 M0 12.01 C-1.19 2.98, 2.8 -1.29, 12.01 0 M0 12.01 C-1.74 5.51, 4.88 -0.75, 12.01 0" stroke="#000000" stroke-width="2" fill="none"></path></g><g transform="translate(1044.30694727613 905.9881723641197) rotate(0 24 13)"><text x="24" y="20" font-family="Cascadia, Segoe UI Emoji" font-size="20px" fill="#000000" text-anchor="middle" style="white-space: pre;" direction="ltr">DHCP</text></g><g stroke-linecap="round"><g transform="translate(230 1010) rotate(0 220.69350326040785 -30.539480717212086)"><path d="M-0.08 -0.31 C167.18 -1.23, 336.08 -0.71, 440.76 0.26 M-0.22 -0.46 C152.59 1.37, 305.4 0.68, 439.56 0.47 M441.61 0.41 C438.53 -17.98, 440.65 -32.91, 440.27 -61.85 M440.33 0.33 C440.21 -11.87, 440.17 -24.29, 440.61 -60.25" stroke="#364fc7" stroke-width="1" fill="none"></path></g><g transform="translate(230 1010) rotate(0 220.69350326040785 -30.539480717212086)"><path d="M-1.88 -0.03 L15.02 -7.27 L13.74 7.96 L-1.53 -0.64" stroke="none" stroke-width="0" fill="#364fc7" fill-rule="evenodd"></path><path d="M-0.21 -0.77 C4.2 -2.21, 11.05 -3.85, 14.64 -6.26 M-0.42 -1 C4.6 -2.03, 9.54 -5.25, 12.85 -5.95 M14.53 -6.4 C12.7 -4.49, 14.05 -0.4, 13.69 4.85 M13.72 -6.44 C13.78 -3.61, 13.76 -0.91, 13.9 5.87 M12.61 6.76 C9.51 3.02, 2.11 1.77, 0.22 -0.11 M13.59 6.67 C9.26 4.12, 6.21 1.75, 0.1 -0.78 M-0.08 -0.31 C-0.08 -0.31, -0.08 -0.31, -0.08 -0.31 M-0.08 -0.31 C-0.08 -0.31, -0.08 -0.31, -0.08 -0.31" stroke="#364fc7" stroke-width="1" fill="none"></path></g><g transform="translate(230 1010) rotate(0 220.69350326040785 -30.539480717212086)"><path d="M438.82 -59.97 L448.32 -47.21 L434.37 -44.79 L439.17 -60.57" stroke="none" stroke-width="0" fill="#364fc7" fill-rule="evenodd"></path><path d="M440.49 -60.71 C442 -54.47, 446.03 -48.47, 447.95 -46.19 M440.28 -60.93 C442.55 -55.06, 444.93 -51.35, 446.15 -45.88 M447.83 -46.33 C442.58 -47.88, 440.54 -47.2, 434.31 -47.89 M447.02 -46.37 C444.41 -46.22, 441.74 -46.19, 434.52 -46.88 M433.23 -45.98 C437.67 -52.32, 437.87 -56.3, 440.92 -60.05 M434.21 -46.08 C435.47 -50.68, 438.06 -55.07, 440.8 -60.72 M440.61 -60.25 C440.61 -60.25, 440.61 -60.25, 440.61 -60.25 M440.61 -60.25 C440.61 -60.25, 440.61 -60.25, 440.61 -60.25" stroke="#364fc7" stroke-width="1" fill="none"></path></g></g><mask></mask><g stroke-linecap="round"><g transform="translate(670 890) rotate(0 -40.140213863924146 -110.35718500114854)"><path d="M-1.21 0.72 C-1.18 -76.61, -1.87 -152.53, 0.28 -219.82 M0.44 -0.86 C1.2 -85.4, 1.78 -169.34, 0.43 -220.7 M1.5 -221.44 C-28.83 -218.85, -57.62 -218.09, -81.78 -219.09 M-0.33 -220.05 C-27.96 -220.6, -55.28 -219.5, -79.24 -220.31" stroke="#364fc7" stroke-width="1" fill="none"></path></g><g transform="translate(670 890) rotate(0 -40.140213863924146 -110.35718500114854)"><path d="M0.54 -0.33 L-9.41 -11.65 L4.8 -10.92 L0.49 -0.87" stroke="none" stroke-width="0" fill="#364fc7" fill-rule="evenodd"></path><path d="M-2.25 1.35 C-3.21 -3.85, -6.02 -7.8, -7.28 -12.72 M-0.83 -0.02 C-3.39 -5.01, -5.33 -9.46, -7.15 -13.48 M-6.57 -13.79 C-3.29 -12.7, 0.96 -12.21, 4.02 -12.28 M-7.73 -12.91 C-3.7 -13.54, 0.53 -12.84, 5.63 -13.06 M4.91 -14.03 C2.62 -9.4, 2.1 -5.85, -2.55 0.43 M4.5 -13.09 C3.76 -9.2, 2.15 -6.88, -0.72 1.06 M-1.21 0.72 C-1.21 0.72, -1.21 0.72, -1.21 0.72 M-1.21 0.72 C-1.21 0.72, -1.21 0.72, -1.21 0.72" stroke="#364fc7" stroke-width="1" fill="none"></path></g><g transform="translate(670 890) rotate(0 -40.140213863924146 -110.35718500114854)"><path d="M-77.5 -221.36 L-67.45 -225.23 L-66.1 -211.84 L-77.55 -221.9" stroke="none" stroke-width="0" fill="#364fc7" fill-rule="evenodd"></path><path d="M-80.29 -219.68 C-74.21 -222.21, -70.03 -223.56, -65.32 -226.3 M-78.87 -221.05 C-73.75 -223.13, -67.98 -224.7, -65.19 -227.06 M-64.61 -227.37 C-65.91 -221.68, -66.22 -216.69, -66.87 -213.2 M-65.77 -226.49 C-66.02 -222.76, -66.17 -217.75, -65.26 -213.98 M-65.99 -214.95 C-70.69 -216.64, -73.44 -219.36, -80.59 -220.6 M-66.39 -214.01 C-68.72 -214.93, -72.04 -217.4, -78.76 -219.97 M-79.24 -220.31 C-79.24 -220.31, -79.24 -220.31, -79.24 -220.31 M-79.24 -220.31 C-79.24 -220.31, -79.24 -220.31, -79.24 -220.31" stroke="#364fc7" stroke-width="1" fill="none"></path></g></g><mask></mask><g stroke-linecap="round" transform="translate(290 990) rotate(0 93.5 22.5)"><path d="M10.52 0.61 L179.22 2.37 L186.4 6.53 L185.79 38.51 L184.27 42.57 L176.28 44.29 L6.74 43.4 L0.42 39.53 L0.48 10.81 L1.12 4.44 L11.19 0.28" stroke="none" stroke-width="0" fill="#fa5252"></path><path d="M11.25 0 M11.25 0 C51.84 -1.6, 89.03 0.09, 175.75 0 M11.25 0 C68.19 -0.4, 125.42 0, 175.75 0 M175.75 0 C183.06 -1.36, 187.25 4.19, 187 11.25 M175.75 0 C181.26 1.19, 184.99 3.35, 187 11.25 M187 11.25 C188.7 17.88, 186.8 21.87, 187 33.75 M187 11.25 C187.17 15.01, 187.26 21.23, 187 33.75 M187 33.75 C187.82 41.62, 182.56 43.41, 175.75 45 M187 33.75 C186.25 41.75, 183.31 44.55, 175.75 45 M175.75 45 C128.79 44.32, 82.61 43.66, 11.25 45 M175.75 45 C127.64 44.49, 79.08 44.68, 11.25 45 M11.25 45 C2.57 45.75, 0.29 39.28, 0 33.75 M11.25 45 C4.28 44.46, 0.23 39.32, 0 33.75 M0 33.75 C1.83 27.48, 1.07 23.76, 0 11.25 M0 33.75 C0.33 28.37, 0.51 21.21, 0 11.25 M0 11.25 C0.99 4.64, 5.29 -1.35, 11.25 0 M0 11.25 C-1.43 2.91, 4.16 -0.44, 11.25 0" stroke="#c92a2a" stroke-width="2" fill="none"></path></g><g transform="translate(330 999.5) rotate(0 53.5 13)"><text x="53.5" y="20" font-family="Cascadia, Segoe UI Emoji" font-size="20px" fill="#000000" text-anchor="middle" style="white-space: pre;" direction="ltr">SSH-PROXY</text></g><g stroke-linecap="round" transform="translate(210 230) rotate(0 31.632994168609457 38.232323349387)"><path d="M63.27 38.23 C63.27 40.23, 63.13 42.24, 62.88 44.21 C62.62 46.18, 62.23 48.15, 61.72 50.05 C61.21 51.94, 60.57 53.81, 59.82 55.59 C59.07 57.37, 58.19 59.09, 57.22 60.7 C56.26 62.32, 55.17 63.86, 54 65.27 C52.83 66.68, 51.56 67.99, 50.23 69.16 C48.89 70.33, 47.46 71.39, 45.99 72.3 C44.52 73.2, 42.98 73.98, 41.41 74.59 C39.84 75.21, 38.21 75.68, 36.58 75.99 C34.95 76.31, 33.28 76.46, 31.63 76.46 C29.98 76.46, 28.31 76.31, 26.68 75.99 C25.06 75.68, 23.43 75.21, 21.86 74.59 C20.29 73.98, 18.74 73.2, 17.27 72.3 C15.8 71.39, 14.37 70.33, 13.04 69.16 C11.71 67.99, 10.43 66.68, 9.27 65.27 C8.1 63.86, 7.01 62.32, 6.04 60.7 C5.07 59.09, 4.2 57.37, 3.45 55.59 C2.7 53.81, 2.06 51.94, 1.55 50.05 C1.04 48.15, 0.65 46.18, 0.39 44.21 C0.13 42.24, 0 40.23, 0 38.23 C0 36.24, 0.13 34.22, 0.39 32.25 C0.65 30.28, 1.04 28.31, 1.55 26.42 C2.06 24.52, 2.7 22.65, 3.45 20.88 C4.2 19.1, 5.07 17.37, 6.04 15.76 C7.01 14.15, 8.1 12.61, 9.27 11.2 C10.43 9.79, 11.71 8.47, 13.04 7.3 C14.37 6.13, 15.8 5.07, 17.27 4.17 C18.74 3.26, 20.29 2.49, 21.86 1.87 C23.43 1.26, 25.06 0.78, 26.68 0.47 C28.31 0.16, 29.98 0, 31.63 0 C33.28 0, 34.95 0.16, 36.58 0.47 C38.21 0.78, 39.84 1.26, 41.41 1.87 C42.98 2.49, 44.52 3.26, 45.99 4.17 C47.46 5.07, 48.89 6.13, 50.23 7.3 C51.56 8.47, 52.83 9.79, 54 11.2 C55.17 12.61, 56.26 14.15, 57.22 15.76 C58.19 17.37, 59.07 19.1, 59.82 20.88 C60.57 22.65, 61.21 24.52, 61.72 26.42 C62.23 28.31, 62.62 30.28, 62.88 32.25 C63.13 34.22, 63.2 37.24, 63.27 38.23 C63.33 39.23, 63.33 37.24, 63.27 38.23" stroke="transparent" stroke-width="1" fill="none"></path></g><g stroke-linecap="round"><g transform="translate(214.52507685599903 275.340087617506) rotate(0 26.44863862834609 11.561387201477373)" fill-rule="evenodd"><path d="M0 0 L0.11 9.42 L40.66 29.72 L52.4 21.41 L52.9 12.3 L13.58 -6.6 L0 0" stroke="none" stroke-width="0" fill="#ced4da" fill-rule="evenodd"></path><path d="M0 0 C0.04 3.41, 0.08 6.81, 0.11 9.42 M0 0 C0.04 3.65, 0.09 7.3, 0.11 9.42 M0.11 9.42 C12.73 15.74, 25.35 22.06, 40.66 29.72 M0.11 9.42 C11.21 14.98, 22.32 20.54, 40.66 29.72 M40.66 29.72 C44.21 27.2, 47.77 24.68, 52.4 21.41 M40.66 29.72 C44.05 27.32, 47.45 24.91, 52.4 21.41 M52.4 21.41 C52.58 18.09, 52.76 14.78, 52.9 12.3 M52.4 21.41 C52.55 18.6, 52.71 15.79, 52.9 12.3 M52.9 12.3 C43.76 7.91, 34.63 3.52, 13.58 -6.6 M52.9 12.3 C38.09 5.18, 23.28 -1.94, 13.58 -6.6 M13.58 -6.6 C8.59 -4.17, 3.59 -1.74, 0 0 M13.58 -6.6 C8.79 -4.27, 4 -1.95, 0 0 M0 0 C0 0, 0 0, 0 0 M0 0 C0 0, 0 0, 0 0" stroke="#495057" stroke-width="2" fill="none"></path></g></g><mask></mask><g stroke-linecap="round"><g transform="translate(215.4917835412707 275.64021391994675) rotate(0 25.617168122339535 10.191774646231238)"><path d="M0 0 C11.02 5.75, 22.04 11.5, 39.05 20.38 M0 0 C7.91 4.13, 15.83 8.26, 39.05 20.38 M39.05 20.38 C42.86 17.72, 46.67 15.06, 51.23 11.87 M39.05 20.38 C42.65 17.87, 46.26 15.35, 51.23 11.87" stroke="#495057" stroke-width="2" fill="none"></path></g></g><mask></mask><g stroke-linecap="round"><g transform="translate(255.00637161148734 304.72315571240506) rotate(0 -0.08865561764923768 -4.015930478814937)"><path d="M0 0 C-0.07 -3.19, -0.14 -6.38, -0.18 -8.03 M0 0 C-0.06 -2.57, -0.11 -5.14, -0.18 -8.03" stroke="#495057" stroke-width="2" fill="none"></path></g></g><mask></mask><g stroke-linecap="round"><g transform="translate(231.48862389542046 234.4789312405578) rotate(0 18.91588048791482 25.701680357781697)" fill-rule="evenodd"><path d="M0 0 L17.29 2.31 L27.29 6.68 L35.48 12.76 L38.11 20.59 L38.32 35.91 L36.94 42.15 L33.09 47.71 L28.44 51.04 L25.26 51.07 L20.7 46.63 L10.5 33.98 L1.16 19.81 L-0.4 14.55 L0.25 3.22" stroke="none" stroke-width="0" fill="#ced4da" fill-rule="evenodd"></path><path d="M0 0 C2.88 0.38, 11.38 0.18, 17.29 2.31 C23.21 4.44, 31.98 8.35, 35.48 12.76 C38.98 17.17, 38.06 23.88, 38.3 28.78 C38.54 33.67, 38.58 38.44, 36.94 42.15 C35.29 45.86, 31.14 50.29, 28.44 51.04 C25.73 51.79, 25.25 51.83, 20.7 46.63 C16.16 41.42, 4.57 27.04, 1.16 19.81 C-2.25 12.57, 0.4 5.98, 0.25 3.22 M0 0 C2.88 0.38, 11.38 0.18, 17.29 2.31 C23.21 4.44, 31.98 8.35, 35.48 12.76 C38.98 17.17, 38.06 23.88, 38.3 28.78 C38.54 33.67, 38.58 38.44, 36.94 42.15 C35.29 45.86, 31.14 50.29, 28.44 51.04 C25.73 51.79, 25.25 51.83, 20.7 46.63 C16.16 41.42, 4.57 27.04, 1.16 19.81 C-2.25 12.57, 0.4 5.98, 0.25 3.22" stroke="#495057" stroke-width="2" fill="none"></path></g></g><mask></mask><g stroke-linecap="round"><g transform="translate(218.09344380669245 260.1690017691917) rotate(0 23.93521850035404 1.0837497832572467)" fill-rule="evenodd"><path d="M0 0 L0.13 5.97 L1.16 9.94 L4.31 13.76 L10.96 17.89 L29.51 26.28 L36.67 28.29 L40.93 28.17 L43.58 26.52 L46.49 19.51 L47.86 5.83 L46.87 -7.86 L45.62 -11.37 L43.87 -13.42 L32.44 -19.37 L18.9 -24.74 L13.34 -26.08 L6.16 -25.52 L1.8 -21.15 L0.63 -16.51 L0 0" stroke="none" stroke-width="0" fill="#ced4da" fill-rule="evenodd"></path><path d="M0 0 C0.72 2.29, -1.8 9.05, 4.31 13.76 C10.42 18.48, 29.64 27.33, 36.67 28.29 C43.7 29.25, 44.79 25.53, 46.49 19.51 C48.19 13.48, 48.32 -1.82, 46.87 -7.86 C45.42 -13.9, 43.36 -13.7, 37.77 -16.74 C32.18 -19.77, 19.34 -25.34, 13.34 -26.08 C7.35 -26.82, 4.03 -25.5, 1.8 -21.15 C-0.42 -16.81, 0.3 -3.53, 0 0 M0 0 C0.72 2.29, -1.8 9.05, 4.31 13.76 C10.42 18.48, 29.64 27.33, 36.67 28.29 C43.7 29.25, 44.79 25.53, 46.49 19.51 C48.19 13.48, 48.32 -1.82, 46.87 -7.86 C45.42 -13.9, 43.36 -13.7, 37.77 -16.74 C32.18 -19.77, 19.34 -25.34, 13.34 -26.08 C7.35 -26.82, 4.03 -25.5, 1.8 -21.15 C-0.42 -16.81, 0.3 -3.53, 0 0" stroke="#495057" stroke-width="2" fill="none"></path></g></g><mask></mask><g stroke-linecap="round"><g transform="translate(221.27526198851047 259.7236238239584) rotate(0 20.42976942490759 0.9579109377231134)" fill-rule="evenodd"><path d="M0 0 L1.08 8.37 L3.62 11.57 L16.04 18.6 L29.29 23.59 L36.07 23.37 L39.65 18.69 L40.86 7.06 L39.77 -5.08 L37.05 -10.57 L31.74 -14.07 L15.88 -20.83 L11.21 -21.92 L5.18 -21.45 L1.52 -17.78 L0.53 -13.88 L0 0" stroke="none" stroke-width="0" fill="#343a40" fill-rule="evenodd"></path><path d="M0 0 C0.6 1.93, -1.26 7.63, 3.62 11.57 C8.51 15.5, 23.29 22.4, 29.29 23.59 C35.3 24.77, 37.9 23.46, 39.65 18.69 C41.39 13.91, 41.09 0.38, 39.77 -5.08 C38.46 -10.53, 36.5 -11.26, 31.74 -14.07 C26.98 -16.87, 16.25 -21.3, 11.21 -21.92 C6.17 -22.54, 3.38 -21.43, 1.52 -17.78 C-0.35 -14.12, 0.25 -2.96, 0 0 M0 0 C0.6 1.93, -1.26 7.63, 3.62 11.57 C8.51 15.5, 23.29 22.4, 29.29 23.59 C35.3 24.77, 37.9 23.46, 39.65 18.69 C41.39 13.91, 41.09 0.38, 39.77 -5.08 C38.46 -10.53, 36.5 -11.26, 31.74 -14.07 C26.98 -16.87, 16.25 -21.3, 11.21 -21.92 C6.17 -22.54, 3.38 -21.43, 1.52 -17.78 C-0.35 -14.12, 0.25 -2.96, 0 0" stroke="#495057" stroke-width="2" fill="none"></path></g></g><mask></mask><g stroke-linecap="round"><g transform="translate(243.5489919220945 293.97508162593886) rotate(0 4.027777777777828 3.101851851851734)" fill-rule="evenodd"><path d="M0 0 L8.02 4.03 L8.06 6.2 L0.15 2.37 L0 0" stroke="none" stroke-width="0" fill="#495057" fill-rule="evenodd"></path><path d="M0 0 C2.48 1.25, 4.97 2.5, 8.02 4.03 M0 0 C1.95 0.98, 3.9 1.96, 8.02 4.03 M8.02 4.03 C8.03 4.59, 8.04 5.15, 8.06 6.2 M8.02 4.03 C8.03 4.6, 8.04 5.17, 8.06 6.2 M8.06 6.2 C5.47 4.95, 2.89 3.7, 0.15 2.37 M8.06 6.2 C5.76 5.09, 3.47 3.97, 0.15 2.37 M0.15 2.37 C0.11 1.68, 0.06 1, 0 0 M0.15 2.37 C0.1 1.54, 0.05 0.71, 0 0 M0 0 C0 0, 0 0, 0 0 M0 0 C0 0, 0 0, 0 0" stroke="#495057" stroke-width="1" fill="none"></path></g></g><mask></mask><g stroke-linecap="round"><g transform="translate(250 210) rotate(0 99.0521608915351 -30.452869846779492)"><path d="M-0.94 0.1 C-0.77 -21.28, 1.09 -39.96, -0.44 -58.46 M-0.08 -0.64 C-0.08 -22.86, 0.33 -42.92, 0.45 -59.43 M-1.28 -59.92 C46.56 -58.31, 91.29 -60.82, 198.36 -60.14 M0.35 -59.38 C76.85 -61.24, 153.6 -61.27, 199.38 -60.6" stroke="#000000" stroke-width="1" fill="none"></path></g><g transform="translate(250 210) rotate(0 99.0521608915351 -30.452869846779492)"><path d="M198.6 -61.63 L184.06 -53.89 L185.54 -65.36 L199.91 -58.63" stroke="none" stroke-width="0" fill="#000000" fill-rule="evenodd"></path><path d="M198.68 -60.53 C194.88 -60.06, 191.88 -57.56, 185.41 -53.22 M199.32 -61.08 C193.87 -58.97, 189.2 -55.31, 186.07 -53.95 M184.84 -54.32 C186.15 -56.5, 185.25 -61.18, 184.68 -67.15 M185.98 -53.94 C185.71 -59.36, 185.7 -64.25, 185.4 -67.48 M186.39 -67.09 C190.87 -65.46, 195.71 -60.76, 200.71 -59.31 M185.22 -66.37 C191.62 -65.3, 197.06 -62.59, 199.11 -60.64 M199.38 -60.6 C199.38 -60.6, 199.38 -60.6, 199.38 -60.6 M199.38 -60.6 C199.38 -60.6, 199.38 -60.6, 199.38 -60.6" stroke="#000000" stroke-width="1" fill="none"></path></g></g><mask></mask><g stroke-linecap="round"><g transform="translate(250 330) rotate(0 99.81256308864113 30.393034013947045)"><path d="M1.25 -0.87 C-1.51 11.92, -0.13 29.18, 1.47 61.19 M-0.19 -0.03 C0.19 19.66, -0.26 41.46, 0.89 60.31 M-0.94 59.57 C69.21 61.72, 136.41 61.79, 200.57 61.58 M-0.79 60.69 C43.01 58.59, 87.14 59.48, 199.58 59.42" stroke="#000000" stroke-width="1" fill="none"></path></g><g transform="translate(250 330) rotate(0 99.81256308864113 30.393034013947045)"><path d="M199.66 60.63 L185.83 65.99 L184.59 51.2 L198.57 60.31" stroke="none" stroke-width="0" fill="#000000" fill-rule="evenodd"></path><path d="M200.52 58.76 C195.32 59.54, 193.24 63.62, 187.08 66.63 M199.44 59.4 C194.84 61.05, 189.89 64.28, 186.65 65.98 M185.31 65.44 C187.24 62.59, 187.09 58.36, 186.39 54.17 M185.42 66.23 C185.46 62.75, 185.84 60.61, 185.7 52.66 M187.23 53.41 C190.15 55.18, 192.47 58.06, 199.91 59.69 M185.29 53.51 C188.84 53.61, 190.85 55.23, 199.19 58.79 M199.58 59.42 C199.58 59.42, 199.58 59.42, 199.58 59.42 M199.58 59.42 C199.58 59.42, 199.58 59.42, 199.58 59.42" stroke="#000000" stroke-width="1" fill="none"></path></g></g><mask></mask></svg>