<svg version="1.1" xmlns="http://www.w3.org/2000/svg" viewBox="0 0 1180 120" width="2360" height="240" filter="invert(93%) hue-rotate(180deg)">
  <!-- svg-source:excalidraw -->
  
  <defs>
    <style class="style-fonts">
      @font-face {
        font-family: "Virgil";
        src: url("https://excalidraw.com/Virgil.woff2");
      }
      @font-face {
        font-family: "Cascadia";
        src: url("https://excalidraw.com/Cascadia.woff2");
      }
    </style>
  </defs>
  <rect x="0" y="0" width="1180" height="120" fill="#ffffff"></rect><g stroke-linecap="round" transform="translate(10 10) rotate(0 150 50)"><path d="M25 0 M25 0 C98.84 2.21, 168.92 3, 275 0 M25 0 C99.67 -1.6, 174.64 -1.47, 275 0 M275 0 C291.45 -0.24, 301.35 9.15, 300 25 M275 0 C290.15 0.69, 300.13 7.52, 300 25 M300 25 C299.26 40.62, 300.98 54.98, 300 75 M300 25 C300.87 39.31, 300.28 53.69, 300 75 M300 75 C301.37 93.52, 293.31 99.07, 275 100 M300 75 C299.03 92.25, 292.44 98.8, 275 100 M275 100 C182.38 99.62, 89.03 98, 25 100 M275 100 C181.74 98.4, 88.12 99.13, 25 100 M25 100 C6.5 101.67, 0.87 93.35, 0 75 M25 100 C9.5 98.88, 0.68 90.86, 0 75 M0 75 C0.06 63.01, -0.96 52.69, 0 25 M0 75 C0.19 61.09, 0.33 46.01, 0 25 M0 25 C-0.96 6.56, 8.88 -0.19, 25 0 M0 25 C1.57 7.77, 10.09 2.2, 25 0" stroke="#000000" stroke-width="1" fill="none"></path></g><g transform="translate(127 47.75) rotate(0 33 12.5)"><text x="33" y="18" font-family="Virgil, Segoe UI Emoji" font-size="20px" fill="#000000" text-anchor="middle" style="white-space: pre;" direction="ltr">Ansible</text></g><g stroke-linecap="round" transform="translate(450 10) rotate(0 150 50)"><path d="M25 0 M25 0 C79.83 -1.08, 133.82 -0.06, 275 0 M25 0 C116.29 -0.25, 205.68 -0.28, 275 0 M275 0 C293.04 1.4, 301.56 9.62, 300 25 M275 0 C292.14 -1.39, 298.56 9.59, 300 25 M300 25 C297.77 40.16, 298.16 58.14, 300 75 M300 25 C299.57 38.61, 300.84 52.52, 300 75 M300 75 C298.44 90.23, 292.59 101.56, 275 100 M300 75 C301.48 89.58, 289.71 101.24, 275 100 M275 100 C220.08 101.36, 160.94 99.79, 25 100 M275 100 C200.81 101.99, 126.34 102.46, 25 100 M25 100 C9.87 99.78, -0.63 91.53, 0 75 M25 100 C9.5 99.99, -0.65 92.95, 0 75 M0 75 C2.36 55.13, 1.66 34.26, 0 25 M0 75 C0.17 56, -0.6 37.42, 0 25 M0 25 C0.01 7.9, 9.06 1.96, 25 0 M0 25 C-2.29 6.2, 9.68 -2.07, 25 0" stroke="#000000" stroke-width="1" fill="none"></path></g><g transform="translate(568.5 47.75) rotate(0 31.5 12.5)"><text x="31.5" y="18" font-family="Virgil, Segoe UI Emoji" font-size="20px" fill="#000000" text-anchor="middle" style="white-space: pre;" direction="ltr">Libvirt</text></g><g stroke-linecap="round" transform="translate(870 10) rotate(0 150 50)"><path d="M25 0 M25 0 C112.46 2.35, 203.54 2.64, 275 0 M25 0 C76.67 -1.69, 129.53 -0.32, 275 0 M275 0 C293.39 -1.32, 299.81 8.3, 300 25 M275 0 C292.41 2.06, 301.06 8.79, 300 25 M300 25 C300.16 42.32, 300.25 61.91, 300 75 M300 25 C300.81 39.12, 299.72 55.92, 300 75 M300 75 C299.89 92.89, 290.44 101.33, 275 100 M300 75 C302.1 90.23, 293.11 98.44, 275 100 M275 100 C203.14 100.6, 133.59 98.38, 25 100 M275 100 C222.58 97.65, 171.66 97.42, 25 100 M25 100 C6.86 98.07, -0.59 90.15, 0 75 M25 100 C8.1 99.1, 1.87 90.69, 0 75 M0 75 C1.09 55.83, -1.49 34.73, 0 25 M0 75 C-0.66 64.18, -0.81 54.73, 0 25 M0 25 C1.94 6.35, 9.91 -0.61, 25 0 M0 25 C0.05 9.75, 9.71 -1.16, 25 0" stroke="#000000" stroke-width="1" fill="none"></path></g><g transform="translate(1000 47.75) rotate(0 20 12.5)"><text x="20" y="18" font-family="Virgil, Segoe UI Emoji" font-size="20px" fill="#000000" text-anchor="middle" style="white-space: pre;" direction="ltr">KVM</text></g><g stroke-linecap="round"><g transform="translate(310 70) rotate(0 60.13699799641063 -0.2860676207748156)"><path d="M-0.76 0.31 C19.24 0.32, 98.97 -0.77, 118.9 -0.89 M1.04 -0.57 C21.49 -0.35, 101.02 -0.04, 121.03 0.19" stroke="#000000" stroke-width="1" fill="none"></path></g><g transform="translate(310 70) rotate(0 60.13699799641063 -0.2860676207748156)"><path d="M122.21 -0.8 L107.06 6.63 L108.82 -7.92 L122.6 0.86" stroke="none" stroke-width="0" fill="#000000" fill-rule="evenodd"></path><path d="M121.42 -1.19 C117.01 -0.03, 114.81 1.59, 107.24 5.84 M121.62 0.23 C116.36 2.86, 110.2 4.68, 106.71 7 M106.85 7.19 C108.69 0.54, 108.5 -3.21, 107.51 -5.47 M107.06 6.61 C107.33 1.59, 107.05 -3.21, 107.07 -6.56 M107.73 -6.55 C111.44 -4.53, 114.17 -2.68, 119.56 0.03 M107.79 -6.93 C113.26 -4.57, 117.58 -1.23, 120.56 0.29 M121.03 0.19 C121.03 0.19, 121.03 0.19, 121.03 0.19 M121.03 0.19 C121.03 0.19, 121.03 0.19, 121.03 0.19" stroke="#000000" stroke-width="1" fill="none"></path></g></g><g stroke-linecap="round"><g transform="translate(750 70) rotate(0 50.216763395444104 0.8499611260090205)"><path d="M-0.51 1.11 C16.39 0.96, 84.04 0.2, 100.94 0.06 M1.42 0.64 C18.29 0.62, 83.96 1.46, 100.49 1.64" stroke="#000000" stroke-width="1" fill="none"></path></g><g transform="translate(750 70) rotate(0 50.216763395444104 0.8499611260090205)"><path d="M102.15 -0.06 L87.44 8.16 L87.91 -3.38 L100.68 2.95" stroke="none" stroke-width="0" fill="#000000" fill-rule="evenodd"></path><path d="M101.88 2.82 C97.06 4.3, 93.75 3.98, 86.04 6.45 M100.2 1.32 C95.85 4.64, 89.52 6.83, 86.59 7.83 M85.86 7.14 C87.16 2.9, 86.3 -2.29, 85.96 -5.7 M86.42 7.92 C86.82 4.97, 87.03 1.61, 87.16 -5.48 M88.4 -4.25 C89.58 -1.84, 93.43 -1.92, 100.71 0.69 M86.72 -4.76 C91.72 -3.11, 95.96 0.09, 100.78 1.93 M100.49 1.64 C100.49 1.64, 100.49 1.64, 100.49 1.64 M100.49 1.64 C100.49 1.64, 100.49 1.64, 100.49 1.64" stroke="#000000" stroke-width="1" fill="none"></path></g></g></svg>