<svg version="1.1" xmlns="http://www.w3.org/2000/svg" viewBox="0 0 1840 1401" width="3680" height="2802" filter="invert(93%) hue-rotate(180deg)">
  <!-- svg-source:excalidraw -->
  
  <defs>
    <style class="style-fonts">
      @font-face {
        font-family: "Virgil";
        src: url("https://excalidraw.com/Virgil.woff2");
      }
      @font-face {
        font-family: "Cascadia";
        src: url("https://excalidraw.com/Cascadia.woff2");
      }
    </style>
  </defs>
  <rect x="0" y="0" width="1840" height="1401" fill="#ffffff"></rect><g stroke-linecap="round" transform="translate(490 150) rotate(0 410 310)"><path d="M0.45 0.61 C312.83 2.91, 623.77 2.13, 820.23 -0.46 M0.24 -0.28 C299.96 -0.58, 600.33 -0.44, 819.81 -0.29 M820.52 -0.76 C818.03 223.72, 818.71 446.98, 820.36 619.31 M819.87 -0.14 C818.32 176.48, 818.22 352.9, 820.21 620.2 M819.56 620.29 C602.87 620.24, 385.35 620.37, -0.71 619.92 M819.93 619.69 C530.14 619.06, 240.91 618.61, 0.38 619.9 M0.76 620.58 C-1.01 495.52, -1.06 372.11, -0.39 0.01 M0.15 619.93 C0.96 422.44, 0.76 225.7, 0.39 -0.13" stroke="#364fc7" stroke-width="1" fill="none"></path></g><g transform="translate(863.5 155) rotate(0 36.5 12.5)"><text x="36.5" y="18" font-family="Virgil, Segoe UI Emoji" font-size="20px" fill="#364fc7" text-anchor="middle" style="white-space: pre;" direction="ltr">Cluster</text></g><g stroke-linecap="round" transform="translate(490 1270) rotate(0 670 60.5)"><path d="M-0.51 0.51 C504.84 -3.78, 1009.93 -3.59, 1340.32 -0.24 M0.19 -0.13 C298.34 3.15, 595.78 3.55, 1340.35 0.05 M1338.17 0.77 C1337.95 37.33, 1340.75 71.22, 1340.63 120.61 M1340.24 0.14 C1340.19 46.48, 1339.36 92.21, 1339.81 120.66 M1339.82 121.15 C813.22 123.58, 287.15 124.28, -0.1 121.63 M1340.09 120.78 C805.91 125.69, 271.4 125.89, 0.06 121.09 M-1.83 122.69 C0.16 93.56, -0.07 69.6, 1.21 -0.44 M-0.05 120.49 C-1.31 89.46, -1.1 56.19, 0.32 0.6" stroke="#000000" stroke-width="2" fill="none"></path></g><g transform="translate(1097.5 1313.5) rotate(0 62.5 17)"><text x="62.5" y="24" font-family="Virgil, Segoe UI Emoji" font-size="28px" fill="#000000" text-anchor="middle" style="white-space: pre;" direction="ltr">MAIN VM</text></g><g stroke-linecap="round" transform="translate(510 890) rotate(0 110 160)"><path d="M-1.6 -1.6 C55.21 0.77, 108.67 -1.12, 219.6 0.19 M-0.34 -0.38 C83.16 -1.54, 168.85 -1.02, 220.76 0.07 M219.4 0.63 C221.02 95.74, 221.64 192.81, 220.96 320.95 M220.6 -0.66 C221.72 83.64, 221.87 168.15, 219.69 319.97 M218.44 321.2 C142.32 319.49, 65.18 319.55, -1.33 319.57 M219.71 320.68 C138.56 320.92, 57.11 320.58, -0.59 319.29 M0.48 320.41 C0.02 193.95, 1.65 66.76, -0.75 0.95 M0.56 320.49 C0.94 194.12, 1.13 69.15, 0.2 0.07" stroke="#000000" stroke-width="1" fill="none"></path></g><g transform="translate(590 895) rotate(0 30 17)"><text x="30" y="24" font-family="Virgil, Segoe UI Emoji" font-size="28px" fill="#000000" text-anchor="middle" style="white-space: pre;" direction="ltr">VM 1</text></g><g stroke-linecap="round" transform="translate(550 950) rotate(0 70 60)"><path d="M1.88 1.75 C44.93 0.49, 92.1 -1.88, 141.43 -0.33 M0.82 -0.43 C48.63 0.41, 97.81 0.8, 139.01 -0.26 M139.47 -0.08 C140.9 38.91, 140.58 82.99, 140.67 119.89 M140.87 -0.98 C141.17 32.52, 140.93 65.12, 140.41 120.64 M139.63 121.04 C111.29 119.58, 84.14 120.83, 1.84 119.17 M139.44 120.12 C106.01 120.63, 70.9 121.11, -0.73 119.42 M-1.6 118.42 C-1.96 78.09, 1.22 34.63, 1.77 -1.5 M0.44 120.19 C-1.2 83.08, -1.71 43.92, -0.15 0.77" stroke="#364fc7" stroke-width="1" fill="none"></path></g><g transform="translate(569.5 975) rotate(0 50.5 34)"><text x="50.5" y="24" font-family="Virgil, Segoe UI Emoji" font-size="28px" fill="#364fc7" text-anchor="middle" style="white-space: pre;" direction="ltr">K8s</text><text x="50.5" y="58" font-family="Virgil, Segoe UI Emoji" font-size="28px" fill="#364fc7" text-anchor="middle" style="white-space: pre;" direction="ltr">Master</text></g><g stroke-linecap="round" transform="translate(1350 810) rotate(0 140 210)"><path d="M0.35 1.23 C96.31 -2.35, 189.66 -0.71, 281.46 1.37 M0.5 -0.7 C65.5 1.39, 131.84 2.03, 280.09 0.22 M280.87 -0.73 C278.53 90.82, 279.68 183.66, 280.48 419.72 M280.21 -0.17 C281.72 99.97, 280.85 200.17, 280.32 420.14 M280.21 420.32 C209.73 422.31, 136.17 420.21, 1.52 419.71 M280.4 419.51 C170.24 419.56, 59.95 420.29, 0.16 420.46 M0.5 420.44 C2.46 319.44, 1.63 219.88, -0.83 -0.61 M-0.28 420.33 C-1.36 331.31, -1.23 243.33, 0.11 -0.44" stroke="#0b7285" stroke-width="1" fill="none"></path></g><g transform="translate(1444 1003) rotate(0 46 17)"><text x="46" y="24" font-family="Virgil, Segoe UI Emoji" font-size="28px" fill="#0b7285" text-anchor="middle" style="white-space: pre;" direction="ltr">Ansible</text></g><g stroke-linecap="round" transform="translate(10 950) rotate(0 110 60)"><path d="M30 0 M30 0 C89.24 2.79, 147.37 0.7, 190 0 M30 0 C79.47 0.72, 129.29 -0.49, 190 0 M190 0 C208.77 1.98, 219.63 11.86, 220 30 M190 0 C209.49 -0.02, 221.21 8.52, 220 30 M220 30 C220.46 50.34, 220.87 68.66, 220 90 M220 30 C220.92 43.64, 220.46 55.94, 220 90 M220 90 C221.64 108.44, 208.86 118.21, 190 120 M220 90 C221.55 108.82, 208.81 121.44, 190 120 M190 120 C138.22 121.26, 83.28 119.4, 30 120 M190 120 C141 119.46, 91.19 119.81, 30 120 M30 120 C9.58 118.52, -1.65 111.98, 0 90 M30 120 C10.44 122.18, 2.14 112.24, 0 90 M0 90 C0.99 74.31, 1.15 58.05, 0 30 M0 90 C-0.71 76.94, -0.97 64.62, 0 30 M0 30 C0.69 10.45, 10.8 -1.71, 30 0 M0 30 C-1.23 9.74, 10.73 0.84, 30 0" stroke="#364fc7" stroke-width="1" fill="none"></path></g><g transform="translate(38.5 975.5) rotate(0 81.5 34)"><text x="81.5" y="24" font-family="Virgil, Segoe UI Emoji" font-size="28px" fill="#364fc7" text-anchor="middle" style="white-space: pre;" direction="ltr">KubeCTL / </text><text x="81.5" y="58" font-family="Virgil, Segoe UI Emoji" font-size="28px" fill="#364fc7" text-anchor="middle" style="white-space: pre;" direction="ltr">Helm</text></g><g stroke-linecap="round" transform="translate(630 10) rotate(0 33.0955499403276 40)"><path d="M66.19 40 C66.19 42.09, 66.05 44.2, 65.78 46.26 C65.51 48.32, 65.1 50.38, 64.57 52.36 C64.04 54.34, 63.37 56.3, 62.58 58.16 C61.8 60.02, 60.88 61.82, 59.87 63.51 C58.86 65.2, 57.72 66.81, 56.5 68.28 C55.28 69.76, 53.94 71.13, 52.55 72.36 C51.15 73.59, 49.66 74.69, 48.12 75.64 C46.58 76.59, 44.96 77.4, 43.32 78.04 C41.68 78.69, 39.98 79.18, 38.27 79.51 C36.57 79.83, 34.82 80, 33.1 80 C31.37 80, 29.62 79.83, 27.92 79.51 C26.21 79.18, 24.51 78.69, 22.87 78.04 C21.23 77.4, 19.61 76.59, 18.07 75.64 C16.53 74.69, 15.04 73.59, 13.64 72.36 C12.25 71.13, 10.91 69.76, 9.69 68.28 C8.47 66.81, 7.34 65.2, 6.32 63.51 C5.31 61.82, 4.39 60.02, 3.61 58.16 C2.82 56.3, 2.15 54.34, 1.62 52.36 C1.09 50.38, 0.68 48.32, 0.41 46.26 C0.14 44.2, 0 42.09, 0 40 C0 37.91, 0.14 35.8, 0.41 33.74 C0.68 31.68, 1.09 29.62, 1.62 27.64 C2.15 25.66, 2.82 23.7, 3.61 21.84 C4.39 19.98, 5.31 18.18, 6.32 16.49 C7.34 14.8, 8.47 13.19, 9.69 11.72 C10.91 10.24, 12.25 8.87, 13.64 7.64 C15.04 6.41, 16.53 5.31, 18.07 4.36 C19.61 3.41, 21.23 2.6, 22.87 1.96 C24.51 1.31, 26.21 0.82, 27.92 0.49 C29.62 0.17, 31.37 0, 33.1 0 C34.82 0, 36.57 0.17, 38.27 0.49 C39.98 0.82, 41.68 1.31, 43.32 1.96 C44.96 2.6, 46.58 3.41, 48.12 4.36 C49.66 5.31, 51.15 6.41, 52.55 7.64 C53.94 8.87, 55.28 10.24, 56.5 11.72 C57.72 13.19, 58.86 14.8, 59.87 16.49 C60.88 18.18, 61.8 19.98, 62.58 21.84 C63.37 23.7, 64.04 25.66, 64.57 27.64 C65.1 29.62, 65.51 31.68, 65.78 33.74 C66.05 35.8, 66.12 38.96, 66.19 40 C66.26 41.04, 66.26 38.96, 66.19 40" stroke="transparent" stroke-width="1" fill="none"></path></g><g stroke-linecap="round"><g transform="translate(634.7342943975927 57.43639271217137) rotate(0 27.67149501916947 12.09592950532813)" fill-rule="evenodd"><path d="M0 0 L0.12 9.86 L42.54 31.09 L54.82 22.4 L55.34 12.87 L14.21 -6.9 L0 0" stroke="none" stroke-width="0" fill="#ced4da" fill-rule="evenodd"></path><path d="M0 0 C0.04 3.32, 0.08 6.64, 0.12 9.86 M0 0 C0.04 3.52, 0.09 7.04, 0.12 9.86 M0.12 9.86 C10.84 15.23, 21.57 20.6, 42.54 31.09 M0.12 9.86 C11.33 15.47, 22.53 21.08, 42.54 31.09 M42.54 31.09 C46.68 28.16, 50.83 25.22, 54.82 22.4 M42.54 31.09 C47.12 27.85, 51.71 24.6, 54.82 22.4 M54.82 22.4 C55.01 18.94, 55.2 15.49, 55.34 12.87 M54.82 22.4 C54.93 20.42, 55.04 18.45, 55.34 12.87 M55.34 12.87 C39.94 5.47, 24.54 -1.94, 14.21 -6.9 M55.34 12.87 C43.62 7.23, 31.9 1.6, 14.21 -6.9 M14.21 -6.9 C9.27 -4.5, 4.33 -2.1, 0 0 M14.21 -6.9 C10.28 -4.99, 6.35 -3.09, 0 0 M0 0 C0 0, 0 0, 0 0 M0 0 C0 0, 0 0, 0 0" stroke="#495057" stroke-width="2" fill="none"></path></g></g><g stroke-linecap="round"><g transform="translate(635.7456968974484 57.750395394873124) rotate(0 26.801581361652097 10.66299272800498)"><path d="M0 0 C10.8 5.64, 21.6 11.28, 40.85 21.33 M0 0 C14.56 7.6, 29.13 15.2, 40.85 21.33 M40.85 21.33 C45.51 18.07, 50.17 14.82, 53.6 12.42 M40.85 21.33 C45.9 17.8, 50.95 14.27, 53.6 12.42" stroke="#495057" stroke-width="2" fill="none"></path></g></g><g stroke-linecap="round"><g transform="translate(677.0872473013951 88.17799094190087) rotate(0 -0.0927546221441844 -4.2016075686693455)"><path d="M0 0 C-0.04 -1.93, -0.09 -3.87, -0.19 -8.4 M0 0 C-0.06 -2.55, -0.11 -5.1, -0.19 -8.4" stroke="#495057" stroke-width="2" fill="none"></path></g></g><g stroke-linecap="round"><g transform="translate(652.4821533329759 14.686015233368892) rotate(0 19.790458785412284 26.890001031751353)" fill-rule="evenodd"><path d="M0 0 L7.86 0.52 L18.09 2.42 L28.55 6.99 L37.12 13.35 L39.87 21.54 L40.1 37.57 L38.64 44.1 L34.61 49.91 L29.75 53.4 L26.43 53.43 L21.66 48.78 L10.99 35.55 L1.21 20.73 L-0.42 15.23 L0.26 3.37" stroke="none" stroke-width="0" fill="#ced4da" fill-rule="evenodd"></path><path d="M0 0 C3.02 0.4, 11.91 0.19, 18.09 2.42 C24.28 4.64, 33.45 8.74, 37.12 13.35 C40.78 17.97, 39.82 24.98, 40.07 30.11 C40.32 35.23, 40.36 40.21, 38.64 44.1 C36.92 47.98, 32.58 52.62, 29.75 53.4 C26.92 54.18, 26.42 54.23, 21.66 48.78 C16.9 43.34, 4.78 28.29, 1.21 20.73 C-2.35 13.16, 0.42 6.26, 0.26 3.37 M0 0 C3.02 0.4, 11.91 0.19, 18.09 2.42 C24.28 4.64, 33.45 8.74, 37.12 13.35 C40.78 17.97, 39.82 24.98, 40.07 30.11 C40.32 35.23, 40.36 40.21, 38.64 44.1 C36.92 47.98, 32.58 52.62, 29.75 53.4 C26.92 54.18, 26.42 54.23, 21.66 48.78 C16.9 43.34, 4.78 28.29, 1.21 20.73 C-2.35 13.16, 0.42 6.26, 0.26 3.37" stroke="#495057" stroke-width="2" fill="none"></path></g></g><g stroke-linecap="round"><g transform="translate(638.4676452777721 41.56386965394864) rotate(0 25.041866570986258 1.133857101336332)" fill-rule="evenodd"><path d="M0 0 L0.14 6.25 L1.21 10.4 L4.51 14.4 L11.46 18.71 L30.87 27.49 L38.37 29.6 L42.83 29.47 L45.6 27.74 L48.64 20.41 L50.08 6.1 L49.04 -8.22 L47.73 -11.89 L45.9 -14.04 L33.94 -20.27 L19.77 -25.88 L13.96 -27.29 L6.44 -26.7 L1.89 -22.13 L0.65 -17.27 L0 0" stroke="none" stroke-width="0" fill="#ced4da" fill-rule="evenodd"></path><path d="M0 0 C0.75 2.4, -1.88 9.46, 4.51 14.4 C10.91 19.33, 31.01 28.6, 38.37 29.6 C45.72 30.6, 46.86 26.71, 48.64 20.41 C50.42 14.11, 50.56 -1.9, 49.04 -8.22 C47.51 -14.54, 45.36 -14.33, 39.51 -17.51 C33.67 -20.69, 20.23 -26.52, 13.96 -27.29 C7.69 -28.06, 4.21 -26.68, 1.89 -22.13 C-0.44 -17.58, 0.31 -3.69, 0 0 M0 0 C0.75 2.4, -1.88 9.46, 4.51 14.4 C10.91 19.33, 31.01 28.6, 38.37 29.6 C45.72 30.6, 46.86 26.71, 48.64 20.41 C50.42 14.11, 50.56 -1.9, 49.04 -8.22 C47.51 -14.54, 45.36 -14.33, 39.51 -17.51 C33.67 -20.69, 20.23 -26.52, 13.96 -27.29 C7.69 -28.06, 4.21 -26.68, 1.89 -22.13 C-0.44 -17.58, 0.31 -3.69, 0 0" stroke="#495057" stroke-width="2" fill="none"></path></g></g><g stroke-linecap="round"><g transform="translate(641.7965752543696 41.09789959906789) rotate(0 21.37434258254143 1.002200079727558)" fill-rule="evenodd"><path d="M0 0 L1.13 8.76 L3.79 12.1 L16.78 19.46 L24.52 22.77 L34.73 25.1 L37.73 24.45 L41.48 19.55 L42.75 7.39 L41.61 -5.31 L38.76 -11.05 L28.49 -17.15 L16.61 -21.79 L11.73 -22.93 L5.41 -22.44 L1.59 -18.6 L0.55 -14.52 L0 0" stroke="none" stroke-width="0" fill="#343a40" fill-rule="evenodd"></path><path d="M0 0 C0.63 2.02, -1.32 7.99, 3.79 12.1 C8.9 16.21, 24.37 23.43, 30.65 24.68 C36.93 25.92, 39.65 24.55, 41.48 19.55 C43.31 14.55, 42.99 0.4, 41.61 -5.31 C40.23 -11.02, 38.19 -11.78, 33.21 -14.72 C28.23 -17.65, 17 -22.29, 11.73 -22.93 C6.46 -23.58, 3.54 -22.42, 1.59 -18.6 C-0.37 -14.78, 0.26 -3.1, 0 0 M0 0 C0.63 2.02, -1.32 7.99, 3.79 12.1 C8.9 16.21, 24.37 23.43, 30.65 24.68 C36.93 25.92, 39.65 24.55, 41.48 19.55 C43.31 14.55, 42.99 0.4, 41.61 -5.31 C40.23 -11.02, 38.19 -11.78, 33.21 -14.72 C28.23 -17.65, 17 -22.29, 11.73 -22.93 C6.46 -23.58, 3.54 -22.42, 1.59 -18.6 C-0.37 -14.78, 0.26 -3.1, 0 0" stroke="#495057" stroke-width="2" fill="none"></path></g></g><g stroke-linecap="round"><g transform="translate(665.1001341095662 76.932978193662) rotate(0 4.214002629104925 3.2452663925290466)" fill-rule="evenodd"><path d="M0 0 L8.39 4.22 L8.43 6.49 L0.16 2.48 L0 0" stroke="none" stroke-width="0" fill="#495057" fill-rule="evenodd"></path><path d="M0 0 C3.14 1.58, 6.28 3.15, 8.39 4.22 M0 0 C1.86 0.93, 3.72 1.87, 8.39 4.22 M8.39 4.22 C8.4 4.83, 8.41 5.43, 8.43 6.49 M8.39 4.22 C8.41 5.09, 8.42 5.96, 8.43 6.49 M8.43 6.49 C6.64 5.62, 4.84 4.75, 0.16 2.48 M8.43 6.49 C6.58 5.59, 4.72 4.69, 0.16 2.48 M0.16 2.48 C0.12 1.9, 0.09 1.33, 0 0 M0.16 2.48 C0.11 1.74, 0.06 1, 0 0 M0 0 C0 0, 0 0, 0 0 M0 0 C0 0, 0 0, 0 0" stroke="#495057" stroke-width="1" fill="none"></path></g></g><g stroke-linecap="round" transform="translate(1350 650) rotate(0 140 70)"><path d="M35 0 M35 0 C86.81 1.33, 136.11 2.32, 245 0 M35 0 C82.74 0.38, 128.77 0.74, 245 0 M245 0 C269.16 -0.62, 278.47 11.11, 280 35 M245 0 C269.41 -1.56, 278.32 12.87, 280 35 M280 35 C278.45 59.31, 278.16 85.93, 280 105 M280 35 C279.11 56.34, 280.2 77.17, 280 105 M280 105 C278.62 127.76, 267.98 140.62, 245 140 M280 105 C278.72 126.43, 268.14 137.72, 245 140 M245 140 C178.46 137.09, 110.4 139.71, 35 140 M245 140 C189.32 138.81, 132.94 139.36, 35 140 M35 140 C11.08 140.38, 1.83 129.29, 0 105 M35 140 C13.48 141.43, 0.34 127.18, 0 105 M0 105 C-0.24 78.91, -0.27 53.48, 0 35 M0 105 C-0.54 77.94, 0.91 51.57, 0 35 M0 35 C0.83 11.69, 12.21 -1.16, 35 0 M0 35 C1.64 10.89, 11.99 -1.63, 35 0" stroke="#000000" stroke-width="1" fill="none"></path></g><g transform="translate(1357.5 655) rotate(0 132.5 50)"><text x="132.5" y="14" font-family="Virgil, Segoe UI Emoji" font-size="16px" fill="#000000" text-anchor="middle" style="white-space: pre;" direction="ltr">Ansible</text><text x="132.5" y="34" font-family="Virgil, Segoe UI Emoji" font-size="16px" fill="#000000" text-anchor="middle" style="white-space: pre;" direction="ltr"></text><text x="132.5" y="54" font-family="Virgil, Segoe UI Emoji" font-size="16px" fill="#000000" text-anchor="middle" style="white-space: pre;" direction="ltr">- Vms aufsetzen</text><text x="132.5" y="74" font-family="Virgil, Segoe UI Emoji" font-size="16px" fill="#000000" text-anchor="middle" style="white-space: pre;" direction="ltr">- Kubernetes auf VMs installieren</text><text x="132.5" y="94" font-family="Virgil, Segoe UI Emoji" font-size="16px" fill="#000000" text-anchor="middle" style="white-space: pre;" direction="ltr">- Bei Bedarf Anpassung der VMS</text></g><g stroke-linecap="round" transform="translate(550 630) rotate(0 50 40)"><path d="M0.76 1.77 C24.01 0.04, 48.78 -0.8, 101.07 0 M-0.57 -0.34 C27.97 -0.15, 55.71 0.51, 100.98 0.02 M100.66 -0.49 C102.07 23.19, 99.51 46.94, 100.92 80.47 M100.09 0.74 C101.35 22.75, 101.31 45.2, 100.12 79.57 M100.41 78.54 C75.24 78.1, 46.86 80.3, -1.4 81.21 M99.35 80.23 C77.2 80.21, 52.59 81.4, -0.25 80.03 M-1.08 78.78 C-0.44 62.85, 2.3 45.58, 0.77 -1.12 M-0.06 79.85 C-0.71 58.25, -0.8 36.05, -0.53 0.03" stroke="#000000" stroke-width="1" fill="none"></path></g><g transform="translate(559.5 658) rotate(0 40.5 12.5)"><text x="40.5" y="18" font-family="Virgil, Segoe UI Emoji" font-size="20px" fill="#000000" text-anchor="middle" style="white-space: pre;" direction="ltr">Backend</text></g><g stroke-linecap="round" transform="translate(550 310) rotate(0 50 40)"><path d="M1.4 0.01 C31.35 -1.16, 58.93 -0.08, 98.66 -1.25 M-0.18 0.57 C28.06 0.43, 56.5 -0.24, 99.67 -0.44 M99.57 1.35 C100.89 18.42, 100.34 34.1, 99.13 80.86 M99.61 1 C101.12 22.53, 101.36 43.16, 99.83 79.37 M100.5 78.45 C68.47 82.6, 40.82 80.83, -1.94 79.96 M99.1 79.03 C60.83 80.74, 21.38 80.17, 0.72 80.17 M-1.17 79.48 C-0.29 60.79, 1.11 43.79, 1.89 0.97 M-0.83 80.27 C0 47.94, -0.76 17.42, 0.05 0.46" stroke="#000000" stroke-width="1" fill="none"></path></g><g transform="translate(557.5 338) rotate(0 42.5 12.5)"><text x="42.5" y="18" font-family="Virgil, Segoe UI Emoji" font-size="20px" fill="#000000" text-anchor="middle" style="white-space: pre;" direction="ltr">Frontend</text></g><g stroke-linecap="round" transform="translate(1070 330) rotate(0 80 30)"><path d="M-0.61 1.51 C53.92 -1.47, 107.99 0.34, 161.92 1.51 M0 -0.79 C49.08 1.26, 95.94 0.24, 160.94 0.4 M161.79 -0.26 C159 16.52, 157.49 36.23, 161.89 58.62 M159.35 0.72 C159.7 19.65, 160.17 40.62, 159.81 60.84 M161.81 60.63 C99.73 59.12, 41.27 61.28, -1.66 58.98 M160.83 60.93 C114.76 61.6, 67.9 61.57, -0.01 59.94 M-1.02 61.97 C0.85 35.38, -0.4 12.49, -0.41 0.11 M0.58 60.88 C0.21 39.78, 0.78 17.11, -0.01 0.12" stroke="#862e9c" stroke-width="1" fill="none"></path></g><g transform="translate(1093.5 348) rotate(0 56.5 12.5)"><text x="56.5" y="18" font-family="Virgil, Segoe UI Emoji" font-size="20px" fill="#862e9c" text-anchor="middle" style="white-space: pre;" direction="ltr">Prometheus</text></g><g stroke-linecap="round" transform="translate(1070 230) rotate(0 80 30)"><path d="M-0.51 -1.31 C36.75 1.6, 72.74 -0.51, 160.04 -1.51 M-0.62 0.75 C54.91 -0.13, 109.68 -0.19, 159.23 0.83 M158.59 -1.46 C158.36 19.55, 159.73 35.38, 159.59 60.98 M160.67 -0.43 C159.55 18.1, 160.81 37.13, 159.77 60.13 M158.16 61.63 C126.57 62.33, 92.18 59.45, -1.75 58.85 M160.49 59.5 C102.8 59.07, 44.39 60.87, -0.73 59.83 M-0.47 61.53 C1.37 47.84, -0.18 33.17, -0.91 -0.54 M-0.4 60.44 C-0.82 46.77, -0.12 31.97, 0.89 -0.3" stroke="#862e9c" stroke-width="1" fill="none"></path></g><g transform="translate(1097 236) rotate(0 53 25)"><text x="53" y="18" font-family="Virgil, Segoe UI Emoji" font-size="20px" fill="#862e9c" text-anchor="middle" style="white-space: pre;" direction="ltr">Graphana</text><text x="53" y="43" font-family="Virgil, Segoe UI Emoji" font-size="20px" fill="#862e9c" text-anchor="middle" style="white-space: pre;" direction="ltr">Dashboard</text></g><g stroke-linecap="round" transform="translate(550 490) rotate(0 120 30)"><path d="M0.65 0.68 C69.29 -2.18, 137.44 -1.87, 238.39 -1.15 M-0.51 0.83 C94.02 -1.8, 188.9 -1.42, 239.31 0.46 M238.49 -0.09 C238.25 22.88, 241.45 42.83, 240.61 61.9 M240.04 -0.76 C240.72 20.04, 240.45 41.76, 239.3 60.96 M239.93 61.36 C184.13 60.45, 128.94 58.27, 0.29 59.83 M239.67 59.86 C172.63 59.17, 103.31 59.21, -0.64 59.18 M-1.78 60.15 C-0.3 38.29, -1.37 16.93, -0.77 -1.85 M0.43 60.66 C-0.46 41.26, -0.31 23.77, -0.36 -0.04" stroke="#087f5b" stroke-width="1" fill="none"></path></g><g transform="translate(598.5 508) rotate(0 71.5 12.5)"><text x="71.5" y="18" font-family="Virgil, Segoe UI Emoji" font-size="20px" fill="#087f5b" text-anchor="middle" style="white-space: pre;" direction="ltr">Load-Balancer</text></g><g stroke-linecap="round" transform="translate(690 630) rotate(0 50 40)"><path d="M0.64 -0.08 C22.98 -0.16, 49.99 -0.38, 101.57 1.3 M-0.62 -0.47 C23.14 -0.51, 46.07 0.59, 100.99 0.14 M98.38 -1.76 C100.71 31.29, 101.68 62.29, 100.31 78.13 M99.7 -0.59 C99.25 30.52, 98.99 61.16, 100.19 79.15 M101.78 81.52 C64.5 80.68, 33.09 79.17, -1.25 78.7 M99.6 80.38 C70.87 80.48, 41.99 79.77, 0.71 80.24 M0.58 80.97 C-0.06 59.05, 0.41 36.53, 0.32 -0.02 M0.65 80.54 C0.04 54.35, -1.04 29.44, 0.52 -0.65" stroke="#000000" stroke-width="1" fill="none"></path></g><g transform="translate(699.5 658) rotate(0 40.5 12.5)"><text x="40.5" y="18" font-family="Virgil, Segoe UI Emoji" font-size="20px" fill="#000000" text-anchor="middle" style="white-space: pre;" direction="ltr">Backend</text></g><g stroke-linecap="round" transform="translate(690 310) rotate(0 50 40)"><path d="M-0.9 -0.9 C22.72 -1.65, 47.59 -1.4, 100.64 1.5 M-0.73 0.91 C25.93 0, 53.58 0.3, 100.76 0.76 M99.16 -0.9 C99.79 23.13, 97.72 44.09, 98.01 79.82 M100.12 -0.9 C99.78 28.52, 99.58 55.79, 100.08 79.47 M101.83 81.07 C72.66 80.14, 40.76 79.71, 0.32 80.73 M100.6 79.45 C67.73 79.7, 35.82 79.96, -0.27 79.03 M-0.62 81.57 C1.49 51.3, -0.68 19.79, -0.38 1.52 M-0.24 80.37 C-1.07 60.9, -1.19 42.62, -0.37 0.74" stroke="#000000" stroke-width="1" fill="none"></path></g><g transform="translate(697.5 338) rotate(0 42.5 12.5)"><text x="42.5" y="18" font-family="Virgil, Segoe UI Emoji" font-size="20px" fill="#000000" text-anchor="middle" style="white-space: pre;" direction="ltr">Frontend</text></g><g stroke-linecap="round" transform="translate(550 230) rotate(0 120 30)"><path d="M1.58 -0.01 C95.01 1.88, 187.13 -0.29, 240.81 -0.7 M-0.77 -0.23 C60.34 -0.89, 122.71 -1.16, 239.54 0.1 M239.83 1.49 C240.24 11.55, 239.92 23.84, 239.97 61.83 M239.65 -0.14 C240.74 21.57, 240.8 42.2, 239.57 60.6 M240.48 60.65 C180.72 58.64, 123.46 60.85, 0.41 59.48 M239.84 59.46 C149 61.39, 57.73 61.5, -0.68 59.8 M-0.96 58.87 C-0.54 41.27, 0.04 17.97, 1.17 0.59 M-0.97 60.87 C0.4 37.79, -0.08 17.09, -0.85 -0.86" stroke="#087f5b" stroke-width="1" fill="none"></path></g><g transform="translate(598.5 248) rotate(0 71.5 12.5)"><text x="71.5" y="18" font-family="Virgil, Segoe UI Emoji" font-size="20px" fill="#087f5b" text-anchor="middle" style="white-space: pre;" direction="ltr">Load-Balancer</text></g><g stroke-linecap="round" transform="translate(550 570) rotate(0 120 20)"><path d="M1.45 -0.88 C96.14 0.58, 189.59 0.1, 239.99 -0.73 M0.74 0.63 C53.1 -1.54, 104.49 -1.93, 240.24 -0.45 M238.83 -0.57 C239.88 11.38, 240.12 21.61, 241.48 40.21 M239.19 0.55 C240.71 14.79, 240.77 31.63, 239.26 40.66 M239.53 40.38 C150.08 39.76, 58.38 40.1, 1.2 39.8 M239.4 39.42 C169.99 38.68, 100.45 38.86, 0.69 39.45 M1.3 39.74 C1.7 32.54, 1.33 23.98, 0.25 0.04 M-0.52 39.82 C-0.7 24.29, 0.02 7.35, 0.6 -0.83" stroke="#c92a2a" stroke-width="1" fill="none"></path></g><g transform="translate(609 578) rotate(0 61 12.5)"><text x="61" y="18" font-family="Virgil, Segoe UI Emoji" font-size="20px" fill="#c92a2a" text-anchor="middle" style="white-space: pre;" direction="ltr">Cache-Layer</text></g><g stroke-linecap="round" transform="translate(790 810) rotate(0 260 210)"><path d="M-0.31 0.79 C205.73 1.68, 411.51 1.91, 519.86 -0.45 M-0.29 -0.2 C125.48 1.67, 251.15 1.58, 519.61 -0.17 M519.8 -0.66 C519.42 117.2, 518.4 233.59, 519.89 419.28 M520.19 -0.45 C521.08 126.95, 520.93 253.33, 520.24 420.01 M519.7 419.26 C328.15 420.65, 135.35 420.77, 0.26 420.52 M519.72 419.71 C410.65 420.52, 300.98 420.21, 0.31 419.74 M0.69 420.67 C-0.11 296.3, -0.04 172.72, 0.68 0.24 M0.31 419.75 C0.28 303.73, 0.48 187.52, -0.43 0.32" stroke="#0b7285" stroke-width="1" fill="none"></path></g><g stroke-linecap="round" transform="translate(490 810) rotate(0 130 210)"><path d="M-0.35 -0.6 C92.82 0.28, 187.55 1.08, 260.27 -1.52 M0.74 -0.37 C82.81 1.64, 164.92 1.57, 259.78 -0.76 M260.27 -0.76 C258.13 125.4, 258.07 253.26, 259.3 419.2 M260.51 0.16 C261.27 119.97, 260.52 239.7, 260 420.01 M259.78 420.71 C168.56 421.1, 80.07 422.55, -1.6 418.57 M259.89 420.4 C193.97 419.44, 130.11 419.04, 0.35 419.95 M0.8 420.78 C0.85 261.59, 1.25 102.93, -0.57 0.28 M-0.32 420.45 C-0.83 303.2, -1.6 185.33, -0.37 -0.45" stroke="#0b7285" stroke-width="1" fill="none"></path></g><g stroke-linecap="round" transform="translate(550 1090) rotate(0 70 46.5)"><path d="M1.82 1.07 C35.86 -2.78, 69.11 -0.79, 140.48 1.07 M-0.75 -0.69 C48.09 1.89, 93.49 0.58, 139.22 0.82 M139.04 0.66 C138.57 33.84, 142.27 71.09, 140.1 94.32 M140.74 -0.79 C140.24 32.74, 140.98 67.97, 139.89 92.65 M140.45 91.63 C98.94 91.93, 60.24 93.73, -1.01 93.97 M139.31 92.47 C104.92 92.93, 70.75 93.08, -0.56 92.27 M-1.29 94.5 C-0.12 62.04, 0.95 35.8, -0.7 -1.81 M-0.37 92.19 C-0.81 61.18, -0.69 30.9, -0.62 -0.88" stroke="#0b7285" stroke-width="1" fill="none"></path></g><g transform="translate(566 1112.5) rotate(0 54 25)"><text x="54" y="18" font-family="Virgil, Segoe UI Emoji" font-size="20px" fill="#0b7285" text-anchor="middle" style="white-space: pre;" direction="ltr">"Ansible </text><text x="54" y="43" font-family="Virgil, Segoe UI Emoji" font-size="20px" fill="#0b7285" text-anchor="middle" style="white-space: pre;" direction="ltr">Connection"</text></g><g stroke-linecap="round" transform="translate(810 890) rotate(0 110 160)"><path d="M-0.68 1.18 C67.89 0.76, 134.12 1.7, 221.52 -1.24 M-0.1 -0.75 C57.43 -1.6, 114.14 0.06, 219.32 0 M220.49 0.68 C219.62 98.02, 221.38 195.44, 219.89 319.59 M220.38 -0.08 C217.78 93.65, 217.46 186.96, 220.27 320.67 M220.39 318.4 C144.67 319.69, 69.45 320.79, 1.53 321.37 M220.62 320.06 C137.81 321.34, 53.43 320.83, -0.18 319.22 M-1.06 318.82 C1.52 200.56, -0.62 81.25, -1.23 -0.53 M-0.28 319.92 C0.4 255.79, 1.07 191.09, 0.37 0.7" stroke="#000000" stroke-width="1" fill="none"></path></g><g transform="translate(884 895) rotate(0 36 17)"><text x="36" y="24" font-family="Virgil, Segoe UI Emoji" font-size="28px" fill="#000000" text-anchor="middle" style="white-space: pre;" direction="ltr">VM 2</text></g><g stroke-linecap="round" transform="translate(850 950) rotate(0 70 60)"><path d="M0.24 1.92 C28.08 2.35, 58.57 -0.68, 138.84 1 M-0.79 -0.91 C43.55 1.79, 86.33 2, 139.25 0.15 M140.39 -0.28 C141.76 45.36, 139.13 92.99, 141.55 119.02 M140.15 -0.97 C140.4 29.46, 140.55 58.68, 140.43 120.64 M140.61 119.55 C86.94 120.64, 36.25 119.46, -0.69 121.52 M140.45 119.01 C99.87 120.23, 57.05 119.86, -0.91 119.19 M-0.43 118.06 C-1.92 82.01, -2.15 40.47, -0.41 0.89 M-0.3 119.65 C-0.44 94.77, 0.56 69.19, -0.81 -0.19" stroke="#364fc7" stroke-width="1" fill="none"></path></g><g transform="translate(886.5 976) rotate(0 33.5 34)"><text x="33.5" y="24" font-family="Virgil, Segoe UI Emoji" font-size="28px" fill="#364fc7" text-anchor="middle" style="white-space: pre;" direction="ltr">K8s</text><text x="33.5" y="58" font-family="Virgil, Segoe UI Emoji" font-size="28px" fill="#364fc7" text-anchor="middle" style="white-space: pre;" direction="ltr">Node</text></g><g stroke-linecap="round" transform="translate(850 1090) rotate(0 70 46.5)"><path d="M-0.32 -0.14 C33.29 -1.38, 65.05 -2.01, 141.84 -1.33 M0.87 0.45 C49.87 -1.67, 99.66 -1.86, 140.72 -0.9 M138.19 1.72 C140.59 29.1, 140.76 57.6, 139.15 92.03 M139.11 -0.28 C139.74 28.29, 139.57 55.09, 139.77 93.06 M140.43 91.47 C110.55 93.65, 81.06 94.03, -1.66 93.45 M139.24 93.5 C102.08 94.7, 64.9 94.96, -0.39 93.6 M1.07 94.07 C2.11 70.03, 1.33 47.06, 1.71 -0.44 M-0.69 92.01 C-0.01 61.3, 0.33 30.19, 0.58 0.18" stroke="#0b7285" stroke-width="1" fill="none"></path></g><g transform="translate(866 1112.5) rotate(0 54 25)"><text x="54" y="18" font-family="Virgil, Segoe UI Emoji" font-size="20px" fill="#0b7285" text-anchor="middle" style="white-space: pre;" direction="ltr">"Ansible </text><text x="54" y="43" font-family="Virgil, Segoe UI Emoji" font-size="20px" fill="#0b7285" text-anchor="middle" style="white-space: pre;" direction="ltr">Connection"</text></g><g stroke-linecap="round" transform="translate(1070 890) rotate(0 110 160)"><path d="M-1.46 1.48 C82.88 -2.99, 167.78 -2.33, 220.58 -0.75 M-0.59 0.02 C51.97 -1.03, 104.89 -1.63, 220.22 0.74 M221.15 0.44 C218.22 112.09, 217.47 225.57, 220.12 319.21 M220.35 0.06 C222.48 81.27, 222.68 161.81, 220.17 319.76 M219.39 320.31 C161.43 320.89, 101.65 320.99, 0.97 321.61 M220.04 320.45 C163.36 320.16, 105.4 320.16, -0.48 319.62 M-0.2 318.99 C3.05 249.69, 2.39 180.12, 0.89 0.5 M-0.41 319.37 C-2.79 213.12, -2.09 106.15, -0.49 0.32" stroke="#000000" stroke-width="1" fill="none"></path></g><g transform="translate(1144.5 895) rotate(0 35.5 17)"><text x="35.5" y="24" font-family="Virgil, Segoe UI Emoji" font-size="28px" fill="#000000" text-anchor="middle" style="white-space: pre;" direction="ltr">VM 3</text></g><g stroke-linecap="round" transform="translate(1110 950) rotate(0 70 60)"><path d="M-1.41 -1.74 C52.4 -2.17, 106.48 -2.06, 138.8 -1.27 M-0.96 -0.1 C48.12 -0.82, 98.14 0.82, 140.52 -0.78 M139.95 -0.91 C139.87 45.74, 141.16 90.05, 139.07 121.86 M140.56 0.15 C141.45 33.2, 140.85 67.57, 139.65 119.35 M139.79 121.43 C98.7 121.79, 62.16 122.11, -0.78 119.67 M140.87 119.79 C95.66 120.51, 50.32 120.28, -0.81 119.07 M1.37 119.85 C0.6 82.06, 1.44 43.33, 0.67 1.89 M-0.95 119.84 C0.75 88.68, 0.01 58.71, -0.7 -0.09" stroke="#364fc7" stroke-width="1" fill="none"></path></g><g transform="translate(1146.5 976) rotate(0 33.5 34)"><text x="33.5" y="24" font-family="Virgil, Segoe UI Emoji" font-size="28px" fill="#364fc7" text-anchor="middle" style="white-space: pre;" direction="ltr">K8s</text><text x="33.5" y="58" font-family="Virgil, Segoe UI Emoji" font-size="28px" fill="#364fc7" text-anchor="middle" style="white-space: pre;" direction="ltr">Node</text></g><g stroke-linecap="round" transform="translate(1110 1090) rotate(0 70 46.5)"><path d="M-0.5 -0.97 C54.6 0.36, 106.67 -0.05, 140.99 -1.36 M-0.82 -0.79 C42.61 0.99, 85.23 -0.65, 140.8 0.82 M138.89 0.15 C140.16 29.67, 139.05 63.45, 139.66 94.01 M140.85 -0.75 C140.77 28.34, 140.18 56.72, 139.82 92.65 M138.18 94.54 C96.58 95.85, 50.14 93.66, 0.37 93.09 M140.22 92.78 C90.24 92.26, 40.78 91.77, 0.22 92.86 M0.43 93.75 C0.63 72.5, 0.03 52.46, -0.85 -1.18 M0.04 92.55 C0.19 73.92, 0.18 53.85, -0.08 0.09" stroke="#0b7285" stroke-width="1" fill="none"></path></g><g transform="translate(1126 1112.5) rotate(0 54 25)"><text x="54" y="18" font-family="Virgil, Segoe UI Emoji" font-size="20px" fill="#0b7285" text-anchor="middle" style="white-space: pre;" direction="ltr">"Ansible </text><text x="54" y="43" font-family="Virgil, Segoe UI Emoji" font-size="20px" fill="#0b7285" text-anchor="middle" style="white-space: pre;" direction="ltr">Connection"</text></g><g stroke-linecap="round" transform="translate(1670 810) rotate(0 80 210)"><path d="M-1.22 -1.58 C61.23 1.16, 122.38 -1.39, 160.42 -0.85 M0.45 -0.77 C61.14 -0.66, 123.22 -0.88, 159.44 0.05 M159.36 0.57 C161.41 136.62, 160.98 271, 160.27 419.63 M159.74 -0.42 C158.19 89.03, 158.44 177.32, 160.23 419.57 M158.81 420.55 C109.99 421.48, 62.46 421.35, -1.01 421.08 M159.92 419.8 C123.97 420.47, 86.74 420.27, -0.09 419.57 M0.52 420.76 C-2.66 317.69, -2.6 214.24, 0.86 0.93 M0.39 419.95 C1.58 277.56, 1.63 134.72, -0.11 -0.36" stroke="#000000" stroke-width="1" fill="none"></path></g><g transform="translate(1693.5 986) rotate(0 56.5 34)"><text x="56.5" y="24" font-family="Virgil, Segoe UI Emoji" font-size="28px" fill="#000000" text-anchor="middle" style="white-space: pre;" direction="ltr">Docker</text><text x="56.5" y="58" font-family="Virgil, Segoe UI Emoji" font-size="28px" fill="#000000" text-anchor="middle" style="white-space: pre;" direction="ltr">Registry</text></g><g stroke-linecap="round"><g transform="translate(231 1010) rotate(0 149.58111326664675 -0.025662654429766008)"><path d="M0.39 -0.11 C50.16 0.14, 248.25 1.23, 297.89 1.17 M-0.86 -1.22 C49.33 -1.24, 249.75 -0.65, 300.02 -0.34" stroke="#364fc7" stroke-width="1" fill="none"></path></g><g transform="translate(231 1010) rotate(0 149.58111326664675 -0.025662654429766008)"><path d="M299.79 -1.63 L286.31 4.26 L287.7 -8.14 L300.62 -0.38" stroke="none" stroke-width="0" fill="#364fc7" fill-rule="evenodd"></path><path d="M299.88 -1.73 C298.19 0.28, 292.88 2.5, 287.9 5.18 M299.87 0.25 C294.34 1.56, 289.62 4.54, 286.25 6.53 M286.32 6.67 C286.01 2.28, 285.63 -3.45, 286.11 -5.72 M286.68 5.46 C285.93 1.51, 286.27 -2.96, 286.76 -6.9 M286.84 -7.58 C290.5 -5.1, 296.32 -2.2, 298.68 -1.7 M286.22 -6.33 C290.28 -4.57, 294.26 -2.35, 299.53 -0.58 M300.02 -0.34 C300.02 -0.34, 300.02 -0.34, 300.02 -0.34 M300.02 -0.34 C300.02 -0.34, 300.02 -0.34, 300.02 -0.34" stroke="#364fc7" stroke-width="1" fill="none"></path></g></g><g transform="translate(962 815) rotate(0 88 25)"><text x="88" y="18" font-family="Virgil, Segoe UI Emoji" font-size="20px" fill="#0b7285" text-anchor="middle" style="white-space: pre;" direction="ltr">Ansible Inventory </text><text x="88" y="43" font-family="Virgil, Segoe UI Emoji" font-size="20px" fill="#0b7285" text-anchor="middle" style="white-space: pre;" direction="ltr">Nodes</text></g><g transform="translate(537 815) rotate(0 83 25)"><text x="83" y="18" font-family="Virgil, Segoe UI Emoji" font-size="20px" fill="#0b7285" text-anchor="middle" style="white-space: pre;" direction="ltr">Ansible Inventory</text><text x="83" y="43" font-family="Virgil, Segoe UI Emoji" font-size="20px" fill="#0b7285" text-anchor="middle" style="white-space: pre;" direction="ltr">Master</text></g><g stroke-linecap="round"><g transform="translate(670 410) rotate(0 0.04332635240007221 29.234931110404432)"><path d="M-1.05 -0.41 C-2.09 8.32, 1.31 21.82, 0.5 38.24 M-0.55 -0.7 C0.34 11.33, -0.32 23.62, -0.36 40.71 M1.34 39.09 C-1.76 45.87, -1.16 50.82, -0.77 58.11 M0.19 39.19 C-0.38 44.54, -0.72 49.34, 0.2 59.17" stroke="#000000" stroke-width="1" fill="none"></path></g><g transform="translate(670 410) rotate(0 0.04332635240007221 29.234931110404432)"><path d="M0.55 -1.87 L6.87 13.52 L-6.53 13.95 L-2.52 0.33" stroke="none" stroke-width="0" fill="#000000" fill-rule="evenodd"></path><path d="M-1.84 -0.72 C-0.64 1.55, 3.74 7.35, 6.42 11.49 M-1.47 -0.93 C1.27 2.94, 2.93 7.06, 5.77 13.34 M6.88 12.23 C1.69 13.42, -1.1 13.56, -7.11 12.32 M6.16 12.3 C3.03 13.22, 0.11 13.71, -6.49 12.99 M-7.5 12.44 C-5.15 8.78, -3.28 2.69, -0.52 -1.21 M-6.19 13.94 C-4.31 9.02, -3.1 5.73, -1.19 -0.71 M-1.05 -0.41 C-1.05 -0.41, -1.05 -0.41, -1.05 -0.41 M-1.05 -0.41 C-1.05 -0.41, -1.05 -0.41, -1.05 -0.41" stroke="#000000" stroke-width="1" fill="none"></path></g><g transform="translate(670 410) rotate(0 0.04332635240007221 29.234931110404432)"><path d="M1.81 57.71 L-6.21 46.74 L5.71 45.61 L-1.26 59.91" stroke="none" stroke-width="0" fill="#000000" fill-rule="evenodd"></path><path d="M-0.58 58.86 C-2.84 54.25, -2.16 53.26, -6.66 44.71 M-0.21 58.64 C-1.94 54.64, -4.63 50.77, -7.31 46.57 M-6.19 45.46 C-5.03 46.45, -1.47 46.19, 5.12 43.98 M-6.92 45.52 C-4.66 45.95, -2.18 46.1, 5.74 44.65 M4.73 44.1 C3.23 50.47, 1.18 54.35, 0.73 58.37 M6.05 45.6 C4.69 48.42, 2.83 52.94, 0.06 58.87 M0.2 59.17 C0.2 59.17, 0.2 59.17, 0.2 59.17 M0.2 59.17 C0.2 59.17, 0.2 59.17, 0.2 59.17" stroke="#000000" stroke-width="1" fill="none"></path></g></g><g stroke-linecap="round" transform="translate(530 210) rotate(0 140 100)"><path d="M-0.41 -0.23 C70.8 1.97, 142.9 1.05, 280.16 -0.07 M-0.53 0.35 C103.21 -1.34, 207.06 -1.46, 280.18 -0.63 M279.62 0.81 C279.46 49.52, 279.96 99.14, 280.75 199.5 M279.79 -0.75 C281.55 58.75, 281.87 117.75, 280.42 200.76 M280.52 199.11 C203.23 199.57, 123.32 201.17, -0.73 199.07 M280.2 200.32 C190.13 199.47, 101.6 199.47, -0.6 199.74 M1.32 200.88 C-2.72 121.57, -2 42.27, 0.56 -0.12 M-0.1 199.82 C-0.35 138.93, 0.02 78.17, 0.64 0.05" stroke="#000000" stroke-width="1" fill="none"></path></g><g stroke-linecap="round" transform="translate(530 470) rotate(0 140 130)"><path d="M-0.97 -0.67 C63.34 1.73, 127.88 0.63, 280.15 0.51 M-0.36 -0.09 C77.38 1.18, 155.9 0.8, 280.6 0.4 M280.26 0.82 C279.24 72.66, 279.63 143.5, 279.99 260.65 M279.33 -0.25 C278.95 86.48, 278.3 173.86, 280.73 260.03 M278.79 260.63 C187.37 257.37, 96.63 260.03, 1.03 258.92 M280.23 259.66 C175.49 258.44, 70.76 258.22, 0.31 260.02 M-0.85 261.33 C-0.73 186.13, 0.52 109.1, 1.08 0.45 M-0.27 259.81 C1.51 169.48, 1.23 77.8, 0.46 -0.28" stroke="#000000" stroke-width="1" fill="none"></path></g><g stroke-linecap="round"><g transform="translate(670.7198361278006 208.95376486449805) rotate(0 0.3004942578186274 -56.879053754790334)"><path d="M-0.6 1.78 C-2.49 -29.9, 1.22 -61.32, 0.03 -114.1 M0.17 -0.97 C0.82 -31.9, 1.42 -62.31, 1.75 -115.54" stroke="#000000" stroke-width="1" fill="none"></path></g><g transform="translate(670.7198361278006 208.95376486449805) rotate(0 0.3004942578186274 -56.879053754790334)"><path d="M-2.07 3.19 L-8.79 -10.52 L5.66 -10.1 L1.02 0.78" stroke="none" stroke-width="0" fill="#000000" fill-rule="evenodd"></path><path d="M-1.06 3.12 C-3.78 -1.87, -2.76 -6.66, -7.41 -11.07 M-0.47 1.05 C-2 -2.37, -3.4 -5.45, -6.12 -12.14 M-6.22 -11.36 C-1.78 -11.1, 1.8 -10.92, 6.91 -10.95 M-6.19 -11.5 C-4.01 -12.5, -0.34 -11.66, 5.86 -11.22 M6.18 -11.86 C3.42 -9.91, 4.13 -6.99, -1.95 2.82 M5.34 -11.7 C4.35 -8.67, 2.55 -6.36, -0.82 2.38 M-0.6 1.78 C-0.6 1.78, -0.6 1.78, -0.6 1.78 M-0.6 1.78 C-0.6 1.78, -0.6 1.78, -0.6 1.78" stroke="#000000" stroke-width="1" fill="none"></path></g><g transform="translate(670.7198361278006 208.95376486449805) rotate(0 0.3004942578186274 -56.879053754790334)"><path d="M0.29 -114.13 L6 -100.54 L-4.91 -100.35 L3.37 -116.54" stroke="none" stroke-width="0" fill="#000000" fill-rule="evenodd"></path><path d="M1.3 -114.2 C1.96 -112.11, 6.19 -109.84, 7.38 -101.09 M1.88 -116.27 C3.67 -112.39, 5.63 -108.06, 8.67 -102.17 M8.57 -101.38 C4.57 -101.34, -0.28 -101.24, -3.65 -101.19 M8.6 -101.53 C4.64 -102.45, 2.17 -101.66, -4.71 -101.47 M-4.39 -102.11 C-4.8 -105.61, -1.49 -108.14, 0.41 -114.51 M-5.22 -101.95 C-3.57 -104.31, -2.77 -107.48, 1.53 -114.94 M1.75 -115.54 C1.75 -115.54, 1.75 -115.54, 1.75 -115.54 M1.75 -115.54 C1.75 -115.54, 1.75 -115.54, 1.75 -115.54" stroke="#000000" stroke-width="1" fill="none"></path></g></g><g stroke-linecap="round" transform="translate(1110 10) rotate(0 33.0955499403276 40)"><path d="M66.19 40 C66.19 42.09, 66.05 44.2, 65.78 46.26 C65.51 48.32, 65.1 50.38, 64.57 52.36 C64.04 54.34, 63.37 56.3, 62.58 58.16 C61.8 60.02, 60.88 61.82, 59.87 63.51 C58.86 65.2, 57.72 66.81, 56.5 68.28 C55.28 69.76, 53.94 71.13, 52.55 72.36 C51.15 73.59, 49.66 74.69, 48.12 75.64 C46.58 76.59, 44.96 77.4, 43.32 78.04 C41.68 78.69, 39.98 79.18, 38.27 79.51 C36.57 79.83, 34.82 80, 33.1 80 C31.37 80, 29.62 79.83, 27.92 79.51 C26.21 79.18, 24.51 78.69, 22.87 78.04 C21.23 77.4, 19.61 76.59, 18.07 75.64 C16.53 74.69, 15.04 73.59, 13.64 72.36 C12.25 71.13, 10.91 69.76, 9.69 68.28 C8.47 66.81, 7.34 65.2, 6.32 63.51 C5.31 61.82, 4.39 60.02, 3.61 58.16 C2.82 56.3, 2.15 54.34, 1.62 52.36 C1.09 50.38, 0.68 48.32, 0.41 46.26 C0.14 44.2, 0 42.09, 0 40 C0 37.91, 0.14 35.8, 0.41 33.74 C0.68 31.68, 1.09 29.62, 1.62 27.64 C2.15 25.66, 2.82 23.7, 3.61 21.84 C4.39 19.98, 5.31 18.18, 6.32 16.49 C7.34 14.8, 8.47 13.19, 9.69 11.72 C10.91 10.24, 12.25 8.87, 13.64 7.64 C15.04 6.41, 16.53 5.31, 18.07 4.36 C19.61 3.41, 21.23 2.6, 22.87 1.96 C24.51 1.31, 26.21 0.82, 27.92 0.49 C29.62 0.17, 31.37 0, 33.1 0 C34.82 0, 36.57 0.17, 38.27 0.49 C39.98 0.82, 41.68 1.31, 43.32 1.96 C44.96 2.6, 46.58 3.41, 48.12 4.36 C49.66 5.31, 51.15 6.41, 52.55 7.64 C53.94 8.87, 55.28 10.24, 56.5 11.72 C57.72 13.19, 58.86 14.8, 59.87 16.49 C60.88 18.18, 61.8 19.98, 62.58 21.84 C63.37 23.7, 64.04 25.66, 64.57 27.64 C65.1 29.62, 65.51 31.68, 65.78 33.74 C66.05 35.8, 66.12 38.96, 66.19 40 C66.26 41.04, 66.26 38.96, 66.19 40" stroke="transparent" stroke-width="1" fill="none"></path></g><g stroke-linecap="round"><g transform="translate(1114.7342943975927 57.43639271217137) rotate(0 27.67149501916947 12.09592950532813)" fill-rule="evenodd"><path d="M0 0 L0.12 9.86 L42.54 31.09 L54.82 22.4 L55.34 12.87 L14.21 -6.9 L0 0" stroke="none" stroke-width="0" fill="#ced4da" fill-rule="evenodd"></path><path d="M0 0 C0.05 3.74, 0.09 7.49, 0.12 9.86 M0 0 C0.03 2.19, 0.05 4.38, 0.12 9.86 M0.12 9.86 C14.5 17.06, 28.89 24.26, 42.54 31.09 M0.12 9.86 C16.89 18.26, 33.66 26.65, 42.54 31.09 M42.54 31.09 C46.37 28.38, 50.21 25.66, 54.82 22.4 M42.54 31.09 C45.55 28.96, 48.56 26.83, 54.82 22.4 M54.82 22.4 C55.03 18.63, 55.23 14.86, 55.34 12.87 M54.82 22.4 C55.02 18.79, 55.22 15.19, 55.34 12.87 M55.34 12.87 C42.48 6.68, 29.61 0.5, 14.21 -6.9 M55.34 12.87 C42.35 6.62, 29.35 0.38, 14.21 -6.9 M14.21 -6.9 C9.89 -4.8, 5.57 -2.71, 0 0 M14.21 -6.9 C10.47 -5.09, 6.74 -3.27, 0 0 M0 0 C0 0, 0 0, 0 0 M0 0 C0 0, 0 0, 0 0" stroke="#495057" stroke-width="2" fill="none"></path></g></g><g stroke-linecap="round"><g transform="translate(1115.7456968974475 57.750395394873124) rotate(0 26.801581361652097 10.66299272800498)"><path d="M0 0 C8.47 4.42, 16.95 8.85, 40.85 21.33 M0 0 C12.45 6.5, 24.9 13, 40.85 21.33 M40.85 21.33 C43.75 19.31, 46.64 17.29, 53.6 12.42 M40.85 21.33 C44.69 18.65, 48.53 15.96, 53.6 12.42" stroke="#495057" stroke-width="2" fill="none"></path></g></g><g stroke-linecap="round"><g transform="translate(1157.087247301395 88.17799094190087) rotate(0 -0.0927546221441844 -4.2016075686693455)"><path d="M0 0 C-0.05 -2.44, -0.11 -4.88, -0.19 -8.4 M0 0 C-0.04 -1.72, -0.08 -3.44, -0.19 -8.4" stroke="#495057" stroke-width="2" fill="none"></path></g></g><g stroke-linecap="round"><g transform="translate(1132.482153332976 14.686015233368892) rotate(0 19.790458785412284 26.890001031751353)" fill-rule="evenodd"><path d="M0 0 L7.86 0.52 L18.09 2.42 L28.55 6.99 L37.12 13.35 L39.87 21.54 L40.1 37.57 L38.64 44.1 L34.61 49.91 L29.75 53.4 L26.43 53.43 L21.66 48.78 L10.99 35.55 L1.21 20.73 L-0.42 15.23 L0.26 3.37" stroke="none" stroke-width="0" fill="#ced4da" fill-rule="evenodd"></path><path d="M0 0 C3.02 0.4, 11.91 0.19, 18.09 2.42 C24.28 4.64, 33.45 8.74, 37.12 13.35 C40.78 17.97, 39.82 24.98, 40.07 30.11 C40.32 35.23, 40.36 40.21, 38.64 44.1 C36.92 47.98, 32.58 52.62, 29.75 53.4 C26.92 54.18, 26.42 54.23, 21.66 48.78 C16.9 43.34, 4.78 28.29, 1.21 20.73 C-2.35 13.16, 0.42 6.26, 0.26 3.37 M0 0 C3.02 0.4, 11.91 0.19, 18.09 2.42 C24.28 4.64, 33.45 8.74, 37.12 13.35 C40.78 17.97, 39.82 24.98, 40.07 30.11 C40.32 35.23, 40.36 40.21, 38.64 44.1 C36.92 47.98, 32.58 52.62, 29.75 53.4 C26.92 54.18, 26.42 54.23, 21.66 48.78 C16.9 43.34, 4.78 28.29, 1.21 20.73 C-2.35 13.16, 0.42 6.26, 0.26 3.37" stroke="#495057" stroke-width="2" fill="none"></path></g></g><g stroke-linecap="round"><g transform="translate(1118.4676452777712 41.56386965394864) rotate(0 25.041866570986258 1.133857101336332)" fill-rule="evenodd"><path d="M0 0 L0.14 6.25 L1.21 10.4 L4.51 14.4 L11.46 18.71 L30.87 27.49 L38.37 29.6 L42.83 29.47 L45.6 27.74 L48.64 20.41 L50.08 6.1 L49.04 -8.22 L47.73 -11.89 L45.9 -14.04 L33.94 -20.27 L19.77 -25.88 L13.96 -27.29 L6.44 -26.7 L1.89 -22.13 L0.65 -17.27 L0 0" stroke="none" stroke-width="0" fill="#ced4da" fill-rule="evenodd"></path><path d="M0 0 C0.75 2.4, -1.88 9.46, 4.51 14.4 C10.91 19.33, 31.01 28.6, 38.37 29.6 C45.72 30.6, 46.86 26.71, 48.64 20.41 C50.42 14.11, 50.56 -1.9, 49.04 -8.22 C47.51 -14.54, 45.36 -14.33, 39.51 -17.51 C33.67 -20.69, 20.23 -26.52, 13.96 -27.29 C7.69 -28.06, 4.21 -26.68, 1.89 -22.13 C-0.44 -17.58, 0.31 -3.69, 0 0 M0 0 C0.75 2.4, -1.88 9.46, 4.51 14.4 C10.91 19.33, 31.01 28.6, 38.37 29.6 C45.72 30.6, 46.86 26.71, 48.64 20.41 C50.42 14.11, 50.56 -1.9, 49.04 -8.22 C47.51 -14.54, 45.36 -14.33, 39.51 -17.51 C33.67 -20.69, 20.23 -26.52, 13.96 -27.29 C7.69 -28.06, 4.21 -26.68, 1.89 -22.13 C-0.44 -17.58, 0.31 -3.69, 0 0" stroke="#495057" stroke-width="2" fill="none"></path></g></g><g stroke-linecap="round"><g transform="translate(1121.7965752543696 41.09789959906789) rotate(0 21.37434258254143 1.002200079727558)" fill-rule="evenodd"><path d="M0 0 L1.13 8.76 L3.79 12.1 L16.78 19.46 L24.52 22.77 L34.73 25.1 L37.73 24.45 L41.48 19.55 L42.75 7.39 L41.61 -5.31 L38.76 -11.05 L28.49 -17.15 L16.61 -21.79 L11.73 -22.93 L5.41 -22.44 L1.59 -18.6 L0.55 -14.52 L0 0" stroke="none" stroke-width="0" fill="#343a40" fill-rule="evenodd"></path><path d="M0 0 C0.63 2.02, -1.32 7.99, 3.79 12.1 C8.9 16.21, 24.37 23.43, 30.65 24.68 C36.93 25.92, 39.65 24.55, 41.48 19.55 C43.31 14.55, 42.99 0.4, 41.61 -5.31 C40.23 -11.02, 38.19 -11.78, 33.21 -14.72 C28.23 -17.65, 17 -22.29, 11.73 -22.93 C6.46 -23.58, 3.54 -22.42, 1.59 -18.6 C-0.37 -14.78, 0.26 -3.1, 0 0 M0 0 C0.63 2.02, -1.32 7.99, 3.79 12.1 C8.9 16.21, 24.37 23.43, 30.65 24.68 C36.93 25.92, 39.65 24.55, 41.48 19.55 C43.31 14.55, 42.99 0.4, 41.61 -5.31 C40.23 -11.02, 38.19 -11.78, 33.21 -14.72 C28.23 -17.65, 17 -22.29, 11.73 -22.93 C6.46 -23.58, 3.54 -22.42, 1.59 -18.6 C-0.37 -14.78, 0.26 -3.1, 0 0" stroke="#495057" stroke-width="2" fill="none"></path></g></g><g stroke-linecap="round"><g transform="translate(1145.1001341095653 76.932978193662) rotate(0 4.214002629104925 3.2452663925290466)" fill-rule="evenodd"><path d="M0 0 L8.39 4.22 L8.43 6.49 L0.16 2.48 L0 0" stroke="none" stroke-width="0" fill="#495057" fill-rule="evenodd"></path><path d="M0 0 C1.85 0.93, 3.71 1.86, 8.39 4.22 M0 0 C3.3 1.66, 6.59 3.31, 8.39 4.22 M8.39 4.22 C8.41 5.09, 8.42 5.96, 8.43 6.49 M8.39 4.22 C8.41 4.96, 8.42 5.7, 8.43 6.49 M8.43 6.49 C5.75 5.19, 3.06 3.89, 0.16 2.48 M8.43 6.49 C6.2 5.41, 3.97 4.33, 0.16 2.48 M0.16 2.48 C0.12 1.8, 0.07 1.12, 0 0 M0.16 2.48 C0.1 1.6, 0.05 0.73, 0 0 M0 0 C0 0, 0 0, 0 0 M0 0 C0 0, 0 0, 0 0" stroke="#495057" stroke-width="1" fill="none"></path></g></g><g stroke-linecap="round"><g transform="translate(1150 330) rotate(0 -0.1880064089782536 -19.68295921338722)"><path d="M-0.95 1.39 C-0.31 -12.09, -1.02 -29.67, -0.41 -39.15 M0.57 0.09 C-0.49 -11.53, 0.5 -21.92, -0.02 -40.76" stroke="#862e9c" stroke-width="1" fill="none"></path></g><g transform="translate(1150 330) rotate(0 -0.1880064089782536 -19.68295921338722)"><path d="M-1.93 -41.23 L6.28 -27.59 L-5.72 -26.42 L-0.87 -40.39" stroke="none" stroke-width="0" fill="#862e9c" fill-rule="evenodd"></path><path d="M-0.73 -39.71 C2.39 -34.6, 4.12 -32.55, 6.15 -26.59 M0.41 -40.69 C1.04 -37.32, 3.59 -33.02, 6.45 -27.8 M7.5 -26.53 C3.82 -26.71, -0.32 -27.58, -5.48 -27.2 M6.44 -26.71 C2.91 -27.69, -0.97 -26.67, -6.68 -27.35 M-7.17 -26 C-4.93 -32.9, -1.87 -36.9, -0.74 -41.42 M-6.9 -27.14 C-4.42 -30.29, -3.47 -33.99, -0.32 -40.73 M-0.02 -40.76 C-0.02 -40.76, -0.02 -40.76, -0.02 -40.76 M-0.02 -40.76 C-0.02 -40.76, -0.02 -40.76, -0.02 -40.76" stroke="#862e9c" stroke-width="1" fill="none"></path></g></g><g stroke-linecap="round"><g transform="translate(811 370) rotate(0 129.42488754198712 -0.09884793590083518)"><path d="M-0.03 -1.22 C66.16 0.33, 132.62 0.68, 258.88 1.02 M0.46 -0.07 C88.03 -0.18, 176.35 0.58, 258.66 0.08" stroke="#862e9c" stroke-width="1" fill="none"></path></g><g transform="translate(811 370) rotate(0 129.42488754198712 -0.09884793590083518)"><path d="M256.75 -0.15 L244.84 8.1 L245.52 -4.64 L260.32 0.74" stroke="none" stroke-width="0" fill="#862e9c" fill-rule="evenodd"></path><path d="M258.63 -1.06 C254.75 2.65, 251.1 4.63, 245.9 7.4 M259.09 0.01 C253.91 1.48, 249.43 4.36, 245.69 6.52 M244.16 5.94 C245.59 2.88, 245.98 0.07, 245.98 -6.98 M244.77 6.16 C244.9 3.14, 244.67 0.2, 245.02 -6.23 M244.44 -6.17 C248.9 -4.67, 254.98 -1.53, 258.05 0.78 M245.75 -6.01 C250.25 -4.06, 254.97 -1.66, 258.29 -0.21 M258.66 0.08 C258.66 0.08, 258.66 0.08, 258.66 0.08 M258.66 0.08 C258.66 0.08, 258.66 0.08, 258.66 0.08" stroke="#862e9c" stroke-width="1" fill="none"></path></g></g><g stroke-linecap="round"><g transform="translate(810 510) rotate(0 170.30489551008986 -59.872702391741996)"><path d="M0.77 -0.11 C115.96 -0.64, 232.42 0.62, 341.09 0.13 M-0.48 -0.26 C74.99 -2.13, 149.95 -2.15, 340.49 -0.39 M339.04 -0.88 C339.4 -28.29, 338.71 -55.42, 339.89 -119.99 M339.6 0.04 C340.46 -44.63, 341.17 -88.29, 339.6 -119.53" stroke="#862e9c" stroke-width="1" fill="none"></path></g><g transform="translate(810 510) rotate(0 170.30489551008986 -59.872702391741996)"><path d="M341.35 -117.9 L346.32 -105.06 L335.4 -105.62 L341.38 -118.77" stroke="none" stroke-width="0" fill="#862e9c" fill-rule="evenodd"></path><path d="M340.46 -119.65 C341.67 -116.39, 344.28 -110.4, 347.54 -105.97 M339.05 -119.83 C341.31 -117.09, 343.02 -114.16, 346.86 -106.56 M345.7 -106.68 C343.14 -107.03, 339.87 -107.16, 333.57 -105.76 M346.05 -106.09 C341.17 -106.17, 336.96 -105.7, 333.38 -105.47 M335.03 -105.31 C336.71 -110.24, 338.96 -114.37, 338.86 -120.1 M333.41 -106.01 C334.61 -109.81, 336.95 -113.67, 339.78 -119.27 M339.6 -119.53 C339.6 -119.53, 339.6 -119.53, 339.6 -119.53 M339.6 -119.53 C339.6 -119.53, 339.6 -119.53, 339.6 -119.53" stroke="#862e9c" stroke-width="1" fill="none"></path></g></g><g transform="translate(870 470) rotate(0 112 13.5)"><text x="112" y="18" font-family="Virgil, Segoe UI Emoji" font-size="20px" fill="#862e9c" text-anchor="middle" style="white-space: pre;" direction="ltr">Logging &amp; Usage-Data</text></g><g stroke-linecap="round" transform="translate(290 970) rotate(0 70 30)"><path d="M0 0 C0 0, 0 0, 0 0 M0 0 C0 0, 0 0, 0 0 M-0.32 5.88 C2.18 3.6, 3.39 1.5, 5.23 0.02 M-0.44 6.67 C1.41 4.63, 2.9 3.4, 4.87 0.24 M0.05 11.87 C3.76 9.7, 4.32 6.52, 11.33 -0.87 M-0.56 12.57 C2.92 8.54, 6.51 5.06, 10.68 -0.16 M-0.76 19.57 C5.02 11.34, 11.97 3.36, 13.67 -1.13 M-0.54 18.44 C3.55 12.85, 9 7.42, 16.46 0.82 M1.44 23.58 C6.97 16.25, 15.44 5.84, 19.7 1.16 M-0.44 23.97 C7.69 16.2, 15.55 5.66, 20.56 0.15 M-0.46 29.96 C8.78 23.27, 16.24 15.63, 27.09 0.31 M0.41 29.83 C7.16 22.39, 13.21 14.27, 26.63 0.32 M1.49 35.76 C9.03 25.22, 19.84 12.4, 32.19 0.81 M0.28 37.02 C12.67 22.61, 24.4 7.6, 31.29 -0.86 M-0.08 42.53 C9.24 29.92, 20.57 19.81, 38.64 0.5 M-0.48 43.07 C7.81 33.64, 14.81 24.91, 36.53 0.57 M-0.08 47.89 C13.25 34.71, 25.45 19.74, 42.28 -0.19 M0.26 49.17 C12.04 35.81, 22.67 22.12, 41.61 0.54 M-0.72 55.58 C20.11 35.31, 34.3 13.23, 47.61 1.13 M-0.32 54.72 C14.02 39.13, 28.12 22.3, 47.48 -0.19 M1.62 62.03 C19.51 36.13, 40.09 16.31, 52.71 -1.89 M1.03 59.47 C20.99 38.48, 40.92 15.53, 52.72 -0.18 M7.25 59.41 C22.08 40.49, 40.01 22.2, 57.72 -1.06 M5.55 61.05 C26.48 36.42, 46.05 13.99, 57.86 -0.47 M13.13 60.73 C31.39 39.96, 47.48 15.32, 65.71 -0.3 M10.31 59.66 C27.78 41.05, 44.38 23.78, 63.36 -0.78 M15.68 62.38 C34.57 40.02, 56.94 16.83, 67.18 -0.33 M16.05 61.08 C33.59 41.53, 49.98 21.91, 68.01 -0.58 M20.46 61.43 C34.06 43.37, 47.96 27.53, 72.96 -1.39 M22.82 59.56 C33.47 46.29, 44.57 35.08, 74.8 0.68 M28.63 60.94 C35.86 48.96, 48.19 34.97, 78.67 0.12 M27.39 59.63 C37.69 47.28, 50.02 35.4, 79.34 0.44 M31.88 61.29 C47.85 42.57, 64.11 22.15, 85.63 0.9 M32.14 60.94 C45.13 46.75, 57.15 31.55, 85.8 -1.12 M38.88 61.51 C58.14 38.99, 77.13 13.88, 89.32 -1.9 M38.5 60.18 C55.33 39.82, 71.53 20.98, 89.25 -0.23 M42.18 58.52 C63.01 39.32, 81.92 16, 96.33 -1.37 M43.85 59.8 C57.34 44.32, 70.23 27.91, 95.63 0.27 M48.69 60.54 C62.6 43.27, 78.28 27.66, 100.75 -1.53 M48.88 59.97 C59.93 47.91, 72.15 34.09, 100.14 -0.18 M53.93 59.08 C66 48.95, 75.4 35.19, 105.16 -0.06 M53.9 60.11 C73.21 37.48, 93.94 14.08, 107.11 -0.02 M59.77 58.53 C75.99 37.3, 98.48 17.24, 113.03 -0.91 M59.49 60.99 C70.53 45.57, 83.21 33.26, 110.46 -0.75 M62.15 59.73 C80.24 41.31, 96.91 18.73, 117.03 -0.28 M64.22 59.83 C77.76 46.03, 89.82 29.85, 116.9 -0.33 M71.32 62 C86.31 43.12, 100.95 25.28, 122.72 0.9 M69.86 60.92 C88 40.33, 106.23 18.75, 121.65 -0.07 M76.35 62.51 C90.42 41.84, 110.69 20.43, 126.29 -1.36 M73.8 60.41 C90.45 44.07, 104.06 26.29, 127.13 -0.55 M81.99 61.51 C94.76 44.1, 109.41 28.53, 132.83 1.83 M80.99 60.2 C96.77 40.3, 115.88 19.56, 133.18 -0.02 M85.18 61.73 C96.38 44.1, 110.95 28.61, 138.78 1.66 M84.29 60.78 C100.43 42.78, 115.52 26.04, 138.49 -0.55 M91.91 61.63 C104.59 44.41, 115.91 31.84, 141.54 0.36 M90.41 61.02 C105.04 45.36, 118.16 28.88, 142.21 2.27 M93.74 58.75 C109.14 40.98, 127.23 25.17, 141.91 8.57 M96.34 61.1 C106.92 49.7, 117.15 36.57, 141.3 7.29 M100.67 58.99 C113.38 46.33, 126.94 33.63, 142.92 11.56 M101.19 60.27 C115.69 44.83, 129.75 28.26, 141.36 13.44 M105.62 59.96 C113.84 52.76, 123.42 43.46, 141.75 18.64 M106.66 59.77 C113.74 50.51, 122.39 42.3, 141.54 19.79 M113.34 60.23 C123.06 50.64, 129.02 39.9, 139.94 26.66 M112.89 60.6 C119.44 52.16, 127.02 42.53, 140.69 26.5 M116.87 58.75 C124.67 52.05, 134 42.19, 141.13 33.62 M116.92 60.43 C122.45 53.53, 128.75 45.34, 142.06 30.98 M122.45 60.03 C128.06 56.36, 131.41 47.91, 142.78 38.21 M122.58 59.39 C127.76 54.28, 132.14 47.73, 141.01 38.99 M126 61.58 C131.25 53.89, 137.04 51.19, 140.44 45.86 M126.86 60.94 C133.71 55.59, 137.41 49.28, 142.26 43.17 M133.73 59.47 C135.01 56.49, 138.23 53.53, 140.72 51.46 M133.64 59.88 C135.84 56.4, 139.41 53.4, 142.06 50.09 M138.65 60.86 C138.91 59.37, 140.11 58, 141.83 56.67 M138.45 60.49 C138.77 59.88, 139.41 58.71, 141.71 56.59" stroke="#fa5252" stroke-width="0.5" fill="none"></path><path d="M-1.33 1.71 C43.66 -0.74, 85.21 0.85, 141.28 1.83 M-0.64 -0.53 C50.69 0.06, 102.96 1.44, 139.26 0.16 M138.29 0.62 C138.44 16.68, 140.37 32.22, 138.92 61.16 M139.89 0.43 C139.72 17.39, 140.33 35.35, 139.39 59.48 M141.9 60.34 C104.3 59.34, 73.34 59.51, 0.91 61.11 M140.14 59.19 C95.74 59.69, 51.26 61.33, -0.04 60.73 M-1.02 59.93 C-1.35 38.04, -0.9 13.24, 0.19 0.23 M-0.56 59.27 C0.4 44.3, 0.42 29.99, 0.64 0.88" stroke="#000000" stroke-width="1" fill="none"></path></g><g transform="translate(341.5 975) rotate(0 18.5 12.5)"><text x="18.5" y="18" font-family="Virgil, Segoe UI Emoji" font-size="20px" fill="#000000" text-anchor="middle" style="white-space: pre;" direction="ltr">SSH</text></g><g stroke-linecap="round"><g transform="translate(1150.6826147455722 230) rotate(0 0.7350319158372258 -69.24819175805897)"><path d="M-0.68 1.5 C0.33 -39.27, 1.57 -77.99, 2.15 -140 M0.01 0.61 C0.52 -43.44, 1.71 -87.15, 1.94 -137.56" stroke="#862e9c" stroke-width="1" fill="none"></path></g><g transform="translate(1150.6826147455722 230) rotate(0 0.7350319158372258 -69.24819175805897)"><path d="M2.72 -137.04 L7.38 -124.84 L-4.28 -125.99 L0.58 -138.17" stroke="none" stroke-width="0" fill="#862e9c" fill-rule="evenodd"></path><path d="M1.43 -136.43 C4.64 -133.35, 7.03 -128.72, 8.64 -125.2 M1.95 -137.1 C3.81 -132.71, 6.32 -128.11, 8.48 -123.36 M8.45 -124.21 C3.07 -124.28, -0.55 -123.01, -5.29 -123.74 M7.57 -123.27 C5.12 -124.41, 1.73 -123.33, -5.02 -123.72 M-4.18 -122.71 C-2.75 -129.87, 1.25 -133.73, 2.17 -137.76 M-4.5 -123.51 C-3.57 -127.85, -1.33 -131.33, 1.82 -137.1 M1.94 -137.56 C1.94 -137.56, 1.94 -137.56, 1.94 -137.56 M1.94 -137.56 C1.94 -137.56, 1.94 -137.56, 1.94 -137.56" stroke="#862e9c" stroke-width="1" fill="none"></path></g></g></svg>